<svg width="122" height="42" viewBox="0 0 122 42" fill="none" xmlns="http://www.w3.org/2000/svg">
<g filter="url(#filter0_d_754_1747)">
<g filter="url(#filter1_d_754_1747)">
<rect width="120" height="40" rx="10" fill="#16D998"/>
</g>
<path d="M46.32 18.288H54.976V20.144H46.32V18.288ZM54.336 18.288H56.352C56.352 18.288 56.352 18.3413 56.352 18.448C56.352 18.544 56.352 18.6613 56.352 18.8C56.352 18.928 56.3467 19.0347 56.336 19.12C56.2933 20.3253 56.2453 21.3653 56.192 22.24C56.1387 23.104 56.0747 23.824 56 24.4C55.936 24.976 55.856 25.4347 55.76 25.776C55.664 26.1173 55.5467 26.3733 55.408 26.544C55.1947 26.8 54.9707 26.9813 54.736 27.088C54.512 27.1947 54.2453 27.2693 53.936 27.312C53.6693 27.3547 53.3173 27.376 52.88 27.376C52.4427 27.3867 51.984 27.3813 51.504 27.36C51.4933 27.072 51.4293 26.7413 51.312 26.368C51.1947 26.0053 51.0507 25.6907 50.88 25.424C51.328 25.456 51.744 25.4773 52.128 25.488C52.512 25.4987 52.8 25.504 52.992 25.504C53.1413 25.504 53.264 25.4933 53.36 25.472C53.456 25.44 53.552 25.376 53.648 25.28C53.776 25.1413 53.8773 24.8373 53.952 24.368C54.0373 23.888 54.112 23.184 54.176 22.256C54.24 21.3173 54.2933 20.1067 54.336 18.624V18.288ZM48.112 12.608L50.192 13.216C49.7973 14.144 49.3227 15.04 48.768 15.904C48.224 16.768 47.632 17.5627 46.992 18.288C46.3627 19.0133 45.7067 19.6427 45.024 20.176C44.9067 20.0373 44.7467 19.872 44.544 19.68C44.3413 19.4773 44.1333 19.28 43.92 19.088C43.7173 18.896 43.536 18.7413 43.376 18.624C44.0373 18.176 44.6667 17.6427 45.264 17.024C45.872 16.3947 46.4213 15.7067 46.912 14.96C47.4027 14.2027 47.8027 13.4187 48.112 12.608ZM54.208 12.576C54.464 13.088 54.7733 13.6107 55.136 14.144C55.4987 14.6773 55.8933 15.2 56.32 15.712C56.7573 16.2133 57.2 16.688 57.648 17.136C58.1067 17.584 58.5547 17.9733 58.992 18.304C58.8213 18.432 58.6293 18.6027 58.416 18.816C58.2133 19.0187 58.016 19.2267 57.824 19.44C57.6427 19.6533 57.488 19.8507 57.36 20.032C56.912 19.616 56.4587 19.152 56 18.64C55.5413 18.1173 55.088 17.568 54.64 16.992C54.2027 16.4053 53.7867 15.8027 53.392 15.184C52.9973 14.5547 52.64 13.936 52.32 13.328L54.208 12.576ZM49.168 18.832H51.264C51.1893 19.728 51.0667 20.6027 50.896 21.456C50.7253 22.3093 50.4427 23.1147 50.048 23.872C49.664 24.6293 49.104 25.3227 48.368 25.952C47.6427 26.5707 46.6827 27.0987 45.488 27.536C45.4133 27.3547 45.3067 27.1573 45.168 26.944C45.0293 26.7307 44.88 26.5173 44.72 26.304C44.56 26.1013 44.4 25.9253 44.24 25.776C45.3173 25.4347 46.1707 25.0133 46.8 24.512C47.4293 24 47.904 23.4453 48.224 22.848C48.544 22.24 48.7627 21.5947 48.88 20.912C49.008 20.2293 49.104 19.536 49.168 18.832ZM69.392 17.808H76.352V19.616H69.392V17.808ZM68.432 13.52L70.72 14.16C70.6987 14.3093 70.56 14.4053 70.304 14.448V18.208C70.304 18.848 70.272 19.5627 70.208 20.352C70.1547 21.1307 70.048 21.9413 69.888 22.784C69.728 23.616 69.488 24.432 69.168 25.232C68.8587 26.0213 68.4427 26.7467 67.92 27.408C67.8347 27.2693 67.7013 27.1147 67.52 26.944C67.3493 26.784 67.168 26.6293 66.976 26.48C66.784 26.3307 66.608 26.224 66.448 26.16C66.896 25.5733 67.2533 24.944 67.52 24.272C67.7867 23.5893 67.984 22.896 68.112 22.192C68.24 21.488 68.3253 20.7947 68.368 20.112C68.4107 19.4187 68.432 18.7787 68.432 18.192V13.52ZM74.24 12.576L75.856 14.08C75.2373 14.3253 74.5653 14.56 73.84 14.784C73.1147 14.9973 72.3787 15.184 71.632 15.344C70.8853 15.504 70.1547 15.6373 69.44 15.744C69.3973 15.52 69.312 15.2533 69.184 14.944C69.0667 14.6347 68.944 14.3787 68.816 14.176C69.4773 14.048 70.1387 13.904 70.8 13.744C71.4613 13.5733 72.0907 13.3867 72.688 13.184C73.2853 12.9813 73.8027 12.7787 74.24 12.576ZM72.384 18.368H74.288V27.424H72.384V18.368ZM61.52 15.712H67.488V17.52H61.52V15.712ZM63.712 12.4H65.552V27.424H63.712V12.4ZM63.632 16.944L64.752 17.328C64.6347 17.9787 64.48 18.6453 64.288 19.328C64.1067 20.0107 63.8933 20.6827 63.648 21.344C63.4133 22.0053 63.1573 22.624 62.88 23.2C62.6027 23.7653 62.3093 24.256 62 24.672C61.9147 24.3947 61.7813 24.0853 61.6 23.744C61.4187 23.4027 61.248 23.1147 61.088 22.88C61.376 22.528 61.648 22.1173 61.904 21.648C62.16 21.1787 62.3947 20.6827 62.608 20.16C62.832 19.6267 63.0293 19.088 63.2 18.544C63.3813 17.9893 63.5253 17.456 63.632 16.944ZM65.408 18.352C65.5147 18.4587 65.6747 18.6507 65.888 18.928C66.112 19.1947 66.3467 19.4827 66.592 19.792C66.8373 20.1013 67.056 20.3893 67.248 20.656C67.4507 20.9227 67.5947 21.1147 67.68 21.232L66.592 22.752C66.496 22.5067 66.3573 22.224 66.176 21.904C65.9947 21.584 65.8027 21.2587 65.6 20.928C65.3973 20.5867 65.2 20.2667 65.008 19.968C64.8267 19.6693 64.672 19.4187 64.544 19.216L65.408 18.352Z" fill="white"/>
</g>
<defs>
<filter id="filter0_d_754_1747" x="0" y="0" width="121" height="41" filterUnits="userSpaceOnUse" color-interpolation-filters="sRGB">
<feFlood flood-opacity="0" result="BackgroundImageFix"/>
<feColorMatrix in="SourceAlpha" type="matrix" values="0 0 0 0 0 0 0 0 0 0 0 0 0 0 0 0 0 0 127 0" result="hardAlpha"/>
<feOffset dx="1" dy="1"/>
<feComposite in2="hardAlpha" operator="out"/>
<feColorMatrix type="matrix" values="0 0 0 0 0 0 0 0 0 0 0 0 0 0 0 0 0 0 0.25 0"/>
<feBlend mode="normal" in2="BackgroundImageFix" result="effect1_dropShadow_754_1747"/>
<feBlend mode="normal" in="SourceGraphic" in2="effect1_dropShadow_754_1747" result="shape"/>
</filter>
<filter id="filter1_d_754_1747" x="0" y="0" width="122" height="42" filterUnits="userSpaceOnUse" color-interpolation-filters="sRGB">
<feFlood flood-opacity="0" result="BackgroundImageFix"/>
<feColorMatrix in="SourceAlpha" type="matrix" values="0 0 0 0 0 0 0 0 0 0 0 0 0 0 0 0 0 0 127 0" result="hardAlpha"/>
<feOffset dx="1" dy="1"/>
<feGaussianBlur stdDeviation="0.5"/>
<feComposite in2="hardAlpha" operator="out"/>
<feColorMatrix type="matrix" values="0 0 0 0 0 0 0 0 0 0 0 0 0 0 0 0 0 0 0.25 0"/>
<feBlend mode="normal" in2="BackgroundImageFix" result="effect1_dropShadow_754_1747"/>
<feBlend mode="normal" in="SourceGraphic" in2="effect1_dropShadow_754_1747" result="shape"/>
</filter>
</defs>
</svg>
