<svg width="235" height="101" viewBox="0 0 235 101" fill="none" xmlns="http://www.w3.org/2000/svg">
<rect x="11" y="35" width="221" height="56" rx="28" fill="#3BBC54"/>
<path d="M98.14 57.66H99.64V69.78C99.64 70.26 99.5733 70.6133 99.44 70.84C99.3067 71.08 99.0733 71.2667 98.74 71.4C98.3933 71.5067 97.9267 71.5733 97.34 71.6C96.7533 71.64 96.0267 71.66 95.16 71.66C95.12 71.4467 95.04 71.2 94.92 70.92C94.8133 70.6533 94.7 70.42 94.58 70.22C95.06 70.2333 95.5067 70.24 95.92 70.24C96.3333 70.24 96.6933 70.24 97 70.24C97.3067 70.24 97.5267 70.24 97.66 70.24C97.8467 70.2267 97.9733 70.1867 98.04 70.12C98.1067 70.0533 98.14 69.94 98.14 69.78V57.66ZM92.64 54.32H104.08V55.7H92.64V54.32ZM103.62 54.32H104L104.32 54.24L105.36 54.98C104.853 55.5 104.267 56.0067 103.6 56.5C102.933 56.9933 102.233 57.4533 101.5 57.88C100.767 58.3067 100.033 58.68 99.3 59C99.1933 58.8533 99.0533 58.6867 98.88 58.5C98.7067 58.3 98.5533 58.14 98.42 58.02C99.0733 57.7667 99.7267 57.4467 100.38 57.06C101.047 56.66 101.66 56.2533 102.22 55.84C102.793 55.4133 103.26 55.0067 103.62 54.62V54.32ZM95.66 60.04H102.4V61.26H95.66V60.04ZM90.18 58.64H94.66V60.02H90.18V58.64ZM95.24 63.2H102.74V64.46H95.24V63.2ZM94.12 66.48H103.88V67.76H94.12V66.48ZM106.9 58.48L108.1 59.44C107.727 59.88 107.327 60.3267 106.9 60.78C106.473 61.2333 106.047 61.6733 105.62 62.1C105.193 62.5133 104.793 62.8867 104.42 63.22L103.48 62.4C103.84 62.0533 104.227 61.66 104.64 61.22C105.067 60.7667 105.48 60.3 105.88 59.82C106.28 59.3267 106.62 58.88 106.9 58.48ZM103.72 58C103.96 59.52 104.28 60.9667 104.68 62.34C105.093 63.7133 105.607 64.9467 106.22 66.04C106.847 67.1333 107.593 68.0067 108.46 68.66C108.34 68.7533 108.207 68.8733 108.06 69.02C107.913 69.1667 107.773 69.32 107.64 69.48C107.507 69.64 107.4 69.7933 107.32 69.94C106.413 69.1533 105.633 68.1733 104.98 67C104.34 65.8133 103.807 64.48 103.38 63C102.953 61.5067 102.613 59.92 102.36 58.24L103.72 58ZM94.12 58.64H94.4L94.68 58.58L95.62 58.94C95.3667 60.6067 95 62.1467 94.52 63.56C94.04 64.96 93.4733 66.1933 92.82 67.26C92.18 68.3267 91.4733 69.2133 90.7 69.92C90.62 69.8 90.5067 69.6733 90.36 69.54C90.2267 69.3933 90.0867 69.2533 89.94 69.12C89.7933 68.9867 89.66 68.8867 89.54 68.82C90.3 68.18 90.98 67.3733 91.58 66.4C92.18 65.4133 92.7 64.2933 93.14 63.04C93.58 61.7867 93.9067 60.4333 94.12 58.98V58.64ZM123.4 54.6H124.78C124.687 55.4 124.54 56.2 124.34 57C124.14 57.7867 123.86 58.54 123.5 59.26C123.14 59.98 122.667 60.6467 122.08 61.26C121.493 61.86 120.76 62.38 119.88 62.82C119.8 62.66 119.667 62.4733 119.48 62.26C119.307 62.0467 119.147 61.88 119 61.76C119.813 61.3867 120.487 60.9333 121.02 60.4C121.553 59.8533 121.98 59.2667 122.3 58.64C122.62 58 122.86 57.34 123.02 56.66C123.193 55.9667 123.32 55.28 123.4 54.6ZM119.74 57.46L120.46 56.4C121.153 56.64 121.873 56.9267 122.62 57.26C123.367 57.58 124.067 57.92 124.72 58.28C125.387 58.6267 125.94 58.9533 126.38 59.26L125.64 60.44C125.2 60.12 124.647 59.7733 123.98 59.4C123.327 59.0267 122.627 58.6667 121.88 58.32C121.147 57.9733 120.433 57.6867 119.74 57.46ZM128.12 54.06H129.54C129.54 54.06 129.54 54.1 129.54 54.18C129.54 54.2467 129.54 54.3333 129.54 54.44C129.54 54.5333 129.54 54.6133 129.54 54.68C129.473 56.2533 129.4 57.5267 129.32 58.5C129.24 59.4733 129.147 60.2133 129.04 60.72C128.933 61.2267 128.793 61.5733 128.62 61.76C128.473 61.96 128.307 62.1 128.12 62.18C127.933 62.26 127.7 62.3133 127.42 62.34C127.18 62.3667 126.847 62.38 126.42 62.38C126.007 62.3667 125.56 62.3467 125.08 62.32C125.067 62.12 125.027 61.8933 124.96 61.64C124.893 61.3733 124.8 61.1467 124.68 60.96C125.147 61 125.573 61.0267 125.96 61.04C126.347 61.04 126.62 61.04 126.78 61.04C127.073 61.0667 127.287 61 127.42 60.84C127.54 60.7067 127.64 60.4133 127.72 59.96C127.813 59.5067 127.893 58.8267 127.96 57.92C128.027 57.0133 128.08 55.8067 128.12 54.3V54.06ZM122 64.7H123.38V69.54C123.38 69.78 123.42 69.9333 123.5 70C123.58 70.0667 123.76 70.1 124.04 70.1C124.093 70.1 124.207 70.1 124.38 70.1C124.553 70.1 124.74 70.1 124.94 70.1C125.153 70.1 125.347 70.1 125.52 70.1C125.693 70.1 125.827 70.1 125.92 70.1C126.093 70.1 126.227 70.0533 126.32 69.96C126.413 69.8533 126.48 69.64 126.52 69.32C126.56 69 126.587 68.5 126.6 67.82C126.693 67.9 126.813 67.98 126.96 68.06C127.107 68.1267 127.26 68.1867 127.42 68.24C127.58 68.2933 127.727 68.34 127.86 68.38C127.82 69.1933 127.74 69.82 127.62 70.26C127.5 70.7133 127.313 71.02 127.06 71.18C126.82 71.3533 126.487 71.44 126.06 71.44C125.993 71.44 125.853 71.44 125.64 71.44C125.427 71.44 125.2 71.44 124.96 71.44C124.72 71.44 124.493 71.44 124.28 71.44C124.08 71.44 123.933 71.44 123.84 71.44C123.347 71.44 122.96 71.3867 122.68 71.28C122.413 71.1733 122.233 70.98 122.14 70.7C122.047 70.42 122 70.04 122 69.56V64.7ZM120.1 65.38L121.3 65.7C121.233 66.2867 121.133 66.88 121 67.48C120.88 68.08 120.707 68.6467 120.48 69.18C120.253 69.7 119.967 70.1467 119.62 70.52L118.5 69.8C118.82 69.4667 119.08 69.0667 119.28 68.6C119.493 68.12 119.667 67.6067 119.8 67.06C119.933 66.5 120.033 65.94 120.1 65.38ZM122.32 62.88L123.22 62C123.66 62.2133 124.107 62.4733 124.56 62.78C125.013 63.0867 125.44 63.4 125.84 63.72C126.24 64.04 126.56 64.34 126.8 64.62L125.88 65.62C125.64 65.34 125.327 65.0333 124.94 64.7C124.553 64.3667 124.133 64.0467 123.68 63.74C123.227 63.42 122.773 63.1333 122.32 62.88ZM127 65.52L128.22 65.02C128.58 65.5133 128.913 66.0467 129.22 66.62C129.54 67.18 129.807 67.74 130.02 68.3C130.247 68.86 130.407 69.3667 130.5 69.82L129.16 70.36C129.08 69.9067 128.933 69.4 128.72 68.84C128.507 68.28 128.247 67.7133 127.94 67.14C127.647 66.5533 127.333 66.0133 127 65.52ZM119.9 54.06H128.76V55.34H119.9V54.06ZM112.66 59.26H118.34V60.44H112.66V59.26ZM112.74 53.9H118.28V55.1H112.74V53.9ZM112.66 61.92H118.34V63.12H112.66V61.92ZM111.76 56.52H118.92V57.78H111.76V56.52ZM113.34 64.62H118.36V70.46H113.34V69.22H117.06V65.88H113.34V64.62ZM112.64 64.62H113.92V71.38H112.64V64.62ZM139.8 54.42C139.747 54.7533 139.707 55.0933 139.68 55.44C139.653 55.7733 139.633 56.1067 139.62 56.44C139.593 57 139.567 57.6933 139.54 58.52C139.513 59.3467 139.487 60.2267 139.46 61.16C139.433 62.08 139.413 63 139.4 63.92C139.387 64.84 139.38 65.6667 139.38 66.4C139.38 67.1333 139.52 67.72 139.8 68.16C140.08 68.6 140.467 68.9133 140.96 69.1C141.453 69.2867 142.02 69.38 142.66 69.38C143.567 69.38 144.387 69.2667 145.12 69.04C145.853 68.8 146.507 68.4867 147.08 68.1C147.653 67.7 148.16 67.2533 148.6 66.76C149.053 66.2667 149.46 65.76 149.82 65.24L150.96 66.6C150.613 67.08 150.187 67.58 149.68 68.1C149.187 68.6067 148.6 69.08 147.92 69.52C147.24 69.96 146.453 70.32 145.56 70.6C144.68 70.88 143.693 71.02 142.6 71.02C141.653 71.02 140.813 70.8733 140.08 70.58C139.347 70.2867 138.773 69.8133 138.36 69.16C137.947 68.5067 137.74 67.64 137.74 66.56C137.74 65.96 137.747 65.3 137.76 64.58C137.773 63.8467 137.793 63.0933 137.82 62.32C137.847 61.5467 137.867 60.7933 137.88 60.06C137.893 59.3133 137.907 58.6267 137.92 58C137.933 57.3733 137.94 56.8533 137.94 56.44C137.94 56.0667 137.927 55.7067 137.9 55.36C137.873 55.0133 137.833 54.6933 137.78 54.4L139.8 54.42ZM166.46 54.12C166.433 54.2933 166.407 54.4867 166.38 54.7C166.367 54.9133 166.353 55.1667 166.34 55.46C166.34 55.66 166.333 55.96 166.32 56.36C166.32 56.76 166.32 57.2133 166.32 57.72C166.32 58.2133 166.32 58.7133 166.32 59.22C166.32 59.7267 166.32 60.1933 166.32 60.62C166.32 61.2867 166.333 61.9867 166.36 62.72C166.387 63.4533 166.42 64.1667 166.46 64.86C166.5 65.5533 166.533 66.1867 166.56 66.76C166.587 67.3333 166.6 67.7867 166.6 68.12C166.6 68.5867 166.487 69.0333 166.26 69.46C166.047 69.8867 165.68 70.2333 165.16 70.5C164.653 70.78 163.96 70.92 163.08 70.92C161.64 70.92 160.54 70.6667 159.78 70.16C159.02 69.6667 158.64 68.94 158.64 67.98C158.64 67.3667 158.82 66.8333 159.18 66.38C159.553 65.9267 160.087 65.5733 160.78 65.32C161.473 65.0533 162.3 64.92 163.26 64.92C164.313 64.92 165.3 65.0467 166.22 65.3C167.153 65.54 168.007 65.8467 168.78 66.22C169.553 66.5933 170.24 66.9867 170.84 67.4C171.44 67.8 171.933 68.16 172.32 68.48L171.4 69.9C170.947 69.4733 170.42 69.0467 169.82 68.62C169.233 68.1933 168.587 67.8 167.88 67.44C167.187 67.08 166.433 66.7933 165.62 66.58C164.82 66.3533 163.967 66.24 163.06 66.24C162.1 66.24 161.367 66.4 160.86 66.72C160.367 67.04 160.12 67.4333 160.12 67.9C160.12 68.1933 160.213 68.4667 160.4 68.72C160.587 68.96 160.887 69.1533 161.3 69.3C161.713 69.4467 162.247 69.52 162.9 69.52C163.287 69.52 163.64 69.4733 163.96 69.38C164.28 69.2733 164.533 69.0933 164.72 68.84C164.92 68.5867 165.02 68.2333 165.02 67.78C165.02 67.3933 165.007 66.8933 164.98 66.28C164.967 65.6533 164.947 64.9933 164.92 64.3C164.893 63.5933 164.867 62.9133 164.84 62.26C164.827 61.6067 164.82 61.06 164.82 60.62C164.82 60.1667 164.82 59.7067 164.82 59.24C164.82 58.76 164.82 58.2867 164.82 57.82C164.82 57.3533 164.82 56.9067 164.82 56.48C164.833 56.0533 164.84 55.6667 164.84 55.32C164.84 55.16 164.833 54.9533 164.82 54.7C164.807 54.4467 164.787 54.2533 164.76 54.12H166.46ZM158.8 56.3C159.133 56.3533 159.52 56.4067 159.96 56.46C160.4 56.5133 160.86 56.5667 161.34 56.62C161.833 56.66 162.3 56.6933 162.74 56.72C163.193 56.7333 163.587 56.74 163.92 56.74C165.187 56.74 166.48 56.6933 167.8 56.6C169.133 56.5067 170.447 56.3533 171.74 56.14L171.72 57.6C170.987 57.68 170.187 57.76 169.32 57.84C168.453 57.92 167.56 57.9867 166.64 58.04C165.733 58.0933 164.833 58.12 163.94 58.12C163.473 58.12 162.92 58.1 162.28 58.06C161.64 58.02 161.007 57.9733 160.38 57.92C159.767 57.8667 159.247 57.82 158.82 57.78L158.8 56.3ZM158.7 60.54C159.06 60.5933 159.46 60.6467 159.9 60.7C160.34 60.7533 160.793 60.7933 161.26 60.82C161.727 60.8467 162.173 60.8733 162.6 60.9C163.027 60.9133 163.407 60.92 163.74 60.92C164.713 60.92 165.653 60.9 166.56 60.86C167.48 60.8067 168.38 60.74 169.26 60.66C170.153 60.5667 171.033 60.4533 171.9 60.32L171.88 61.82C171.213 61.9133 170.547 61.9933 169.88 62.06C169.227 62.1133 168.567 62.16 167.9 62.2C167.247 62.24 166.573 62.2733 165.88 62.3C165.2 62.3133 164.48 62.32 163.72 62.32C163.267 62.32 162.74 62.3067 162.14 62.28C161.553 62.2533 160.953 62.22 160.34 62.18C159.74 62.14 159.2 62.0933 158.72 62.04L158.7 60.54ZM189.54 54.16C189.54 54.2267 189.527 54.3467 189.5 54.52C189.487 54.6933 189.473 54.8667 189.46 55.04C189.46 55.2 189.453 55.3267 189.44 55.42C189.427 55.6733 189.42 56.02 189.42 56.46C189.42 56.9 189.42 57.38 189.42 57.9C189.42 58.42 189.42 58.9467 189.42 59.48C189.433 60.0133 189.44 60.5133 189.44 60.98C189.453 61.4467 189.46 61.84 189.46 62.16L187.92 61.4C187.92 61.2133 187.92 60.9333 187.92 60.56C187.92 60.1733 187.92 59.7333 187.92 59.24C187.92 58.7333 187.913 58.2333 187.9 57.74C187.9 57.2467 187.893 56.7933 187.88 56.38C187.867 55.9667 187.853 55.6467 187.84 55.42C187.827 55.1533 187.807 54.9 187.78 54.66C187.753 54.4067 187.733 54.24 187.72 54.16H189.54ZM178.92 56.94C179.467 56.94 180.087 56.9333 180.78 56.92C181.473 56.8933 182.207 56.8667 182.98 56.84C183.767 56.8133 184.56 56.7933 185.36 56.78C186.16 56.7667 186.927 56.7533 187.66 56.74C188.407 56.7267 189.093 56.72 189.72 56.72C190.32 56.72 190.92 56.72 191.52 56.72C192.12 56.72 192.68 56.72 193.2 56.72C193.733 56.72 194.2 56.7267 194.6 56.74C195.013 56.74 195.34 56.74 195.58 56.74L195.56 58.22C195 58.1933 194.247 58.1733 193.3 58.16C192.367 58.1333 191.167 58.12 189.7 58.12C188.833 58.12 187.927 58.1333 186.98 58.16C186.047 58.1733 185.107 58.1933 184.16 58.22C183.213 58.2467 182.293 58.2867 181.4 58.34C180.52 58.38 179.707 58.4267 178.96 58.48L178.92 56.94ZM189.42 62.76C189.42 63.64 189.287 64.38 189.02 64.98C188.767 65.58 188.407 66.0267 187.94 66.32C187.487 66.6133 186.953 66.76 186.34 66.76C185.927 66.76 185.52 66.6933 185.12 66.56C184.733 66.4133 184.38 66.2 184.06 65.92C183.753 65.6267 183.507 65.2733 183.32 64.86C183.147 64.4333 183.06 63.9533 183.06 63.42C183.06 62.7533 183.22 62.16 183.54 61.64C183.86 61.12 184.287 60.7067 184.82 60.4C185.367 60.0933 185.953 59.94 186.58 59.94C187.367 59.94 188.013 60.12 188.52 60.48C189.04 60.8267 189.433 61.3067 189.7 61.92C189.967 62.52 190.1 63.2067 190.1 63.98C190.1 64.6467 190 65.3267 189.8 66.02C189.613 66.7133 189.293 67.38 188.84 68.02C188.4 68.66 187.793 69.2467 187.02 69.78C186.26 70.3 185.293 70.7333 184.12 71.08L182.78 69.76C183.687 69.5467 184.5 69.2733 185.22 68.94C185.94 68.6067 186.547 68.2 187.04 67.72C187.533 67.24 187.907 66.68 188.16 66.04C188.427 65.4 188.56 64.6667 188.56 63.84C188.56 62.9333 188.367 62.28 187.98 61.88C187.593 61.48 187.127 61.28 186.58 61.28C186.233 61.28 185.907 61.3667 185.6 61.54C185.293 61.7 185.04 61.94 184.84 62.26C184.653 62.58 184.56 62.96 184.56 63.4C184.56 64.0267 184.76 64.5133 185.16 64.86C185.573 65.2067 186.053 65.38 186.6 65.38C187.013 65.38 187.367 65.2667 187.66 65.04C187.953 64.8 188.16 64.4467 188.28 63.98C188.413 63.5 188.427 62.9067 188.32 62.2L189.42 62.76ZM200.888 65.12C201.461 65.12 201.974 65.26 202.428 65.54C202.881 65.8067 203.248 66.1733 203.528 66.64C203.808 67.0933 203.948 67.6 203.948 68.16C203.948 68.72 203.808 69.2333 203.528 69.7C203.248 70.1533 202.881 70.52 202.428 70.8C201.974 71.08 201.461 71.22 200.888 71.22C200.328 71.22 199.814 71.08 199.348 70.8C198.894 70.52 198.528 70.1533 198.248 69.7C197.981 69.2333 197.848 68.72 197.848 68.16C197.848 67.6 197.981 67.0933 198.248 66.64C198.528 66.1733 198.901 65.8067 199.368 65.54C199.834 65.26 200.341 65.12 200.888 65.12ZM200.888 70.2C201.461 70.2 201.941 70.0067 202.328 69.62C202.728 69.22 202.928 68.7333 202.928 68.16C202.928 67.8 202.834 67.4667 202.648 67.16C202.474 66.8533 202.234 66.6067 201.928 66.42C201.621 66.2333 201.274 66.14 200.888 66.14C200.528 66.14 200.194 66.2333 199.888 66.42C199.581 66.6067 199.334 66.8533 199.148 67.16C198.961 67.4667 198.868 67.8 198.868 68.16C198.868 68.5333 198.961 68.88 199.148 69.2C199.334 69.5067 199.581 69.7533 199.888 69.94C200.194 70.1133 200.528 70.2 200.888 70.2Z" fill="white"/>
<mask id="mask0_692_1931" style="mask-type:alpha" maskUnits="userSpaceOnUse" x="12" y="24" width="77" height="77">
<rect x="12" y="24" width="77" height="77" fill="#D9D9D9"/>
</mask>
<g mask="url(#mask0_692_1931)">
<mask id="mask1_692_1931" style="mask-type:alpha" maskUnits="userSpaceOnUse" x="29" y="41" width="44" height="44">
<rect x="29" y="41" width="44" height="44" fill="#D9D9D9"/>
</mask>
<g mask="url(#mask1_692_1931)">
<path d="M39.2952 77.6668C38.4513 77.6668 37.7467 77.3842 37.1814 76.8189C36.6161 76.2536 36.3335 75.549 36.3335 74.7051V51.2952C36.3335 50.4513 36.6161 49.7467 37.1814 49.1814C37.7467 48.6161 38.4513 48.3335 39.2952 48.3335H62.7051C63.549 48.3335 64.2536 48.6161 64.8189 49.1814C65.3842 49.7467 65.6668 50.4513 65.6668 51.2952V74.7051C65.6668 75.549 65.3842 76.2536 64.8189 76.8189C64.2536 77.3842 63.549 77.6668 62.7051 77.6668H39.2952ZM39.2952 75.8335H62.7051C62.9874 75.8335 63.2461 75.716 63.481 75.481C63.716 75.2461 63.8335 74.9874 63.8335 74.7051V51.2952C63.8335 51.0129 63.716 50.7543 63.481 50.5193C63.2461 50.2843 62.9874 50.1668 62.7051 50.1668H39.2952C39.0129 50.1668 38.7543 50.2843 38.5193 50.5193C38.2843 50.7543 38.1668 51.0129 38.1668 51.2952V74.7051C38.1668 74.9874 38.2843 75.2461 38.5193 75.481C38.7543 75.716 39.0129 75.8335 39.2952 75.8335Z" fill="white"/>
</g>
</g>
<path d="M31 1.31934L37.0005 1.31885L51.5 32.1904L31 1.31934Z" fill="#3E4A59"/>
<path d="M217 1.12891L211 1.12842L196.5 32L217 1.12891Z" fill="#3E4A59"/>
<path d="M70.9736 1.568L71.5496 0.895999C71.8776 1.056 72.2216 1.248 72.5816 1.472C72.9416 1.688 73.2776 1.908 73.5896 2.132C73.9096 2.356 74.1656 2.568 74.3576 2.768L73.7216 3.536C73.5376 3.328 73.2936 3.108 72.9896 2.876C72.6856 2.636 72.3536 2.404 71.9936 2.18C71.6416 1.948 71.3016 1.744 70.9736 1.568ZM69.8816 6.944H76.2296V7.82H69.8816V6.944ZM69.0296 10.736H76.9256V11.588H69.0296V10.736ZM69.4376 3.512H76.6616V4.376H69.4376V3.512ZM72.5096 3.812H73.4336V11.132H72.5096V3.812ZM66.5336 1.676L67.0256 1.016C67.2976 1.112 67.5776 1.232 67.8656 1.376C68.1616 1.52 68.4376 1.672 68.6936 1.832C68.9496 1.984 69.1616 2.132 69.3296 2.276L68.8016 3.02C68.6416 2.876 68.4336 2.724 68.1776 2.564C67.9296 2.396 67.6616 2.236 67.3736 2.084C67.0856 1.924 66.8056 1.788 66.5336 1.676ZM65.8376 4.952L66.3056 4.256C66.5776 4.344 66.8616 4.452 67.1576 4.58C67.4616 4.708 67.7456 4.84 68.0096 4.976C68.2816 5.112 68.5016 5.248 68.6696 5.384L68.1776 6.152C68.0096 6.016 67.7936 5.876 67.5296 5.732C67.2736 5.588 66.9976 5.448 66.7016 5.312C66.4056 5.168 66.1176 5.048 65.8376 4.952ZM66.2936 11.192C66.5096 10.888 66.7496 10.524 67.0136 10.1C67.2776 9.668 67.5456 9.212 67.8176 8.732C68.0896 8.244 68.3416 7.776 68.5736 7.328L69.2336 7.916C69.0256 8.34 68.7936 8.78 68.5376 9.236C68.2896 9.692 68.0376 10.14 67.7816 10.58C67.5336 11.02 67.2896 11.428 67.0496 11.804L66.2936 11.192ZM81.6656 7.904H87.5576V7.1H81.6656V7.904ZM81.6656 6.5H87.5576V5.696H81.6656V6.5ZM88.4456 5.084V8.528H80.8136V5.084H88.4456ZM87.4616 2.552C87.3336 2.8 87.2016 3.04 87.0656 3.272C86.9376 3.496 86.8136 3.696 86.6936 3.872L85.9016 3.668C86.0056 3.476 86.1176 3.256 86.2376 3.008C86.3656 2.752 86.4656 2.528 86.5376 2.336L87.4616 2.552ZM82.6256 2.348C82.7456 2.556 82.8576 2.78 82.9616 3.02C83.0736 3.26 83.1536 3.468 83.2016 3.644L82.3376 3.872C82.2976 3.688 82.2296 3.472 82.1336 3.224C82.0376 2.968 81.9296 2.74 81.8096 2.54L82.6256 2.348ZM85.0136 0.92V2.228H84.1136V0.92H85.0136ZM89.7776 3.74V4.472H79.4576V3.74H89.7776ZM89.1536 1.712V2.456H79.9976V1.712H89.1536ZM81.5456 9.404C81.3776 9.836 81.1536 10.26 80.8736 10.676C80.6016 11.084 80.2416 11.42 79.7936 11.684L79.0856 11.204C79.5016 10.972 79.8536 10.668 80.1416 10.292C80.4296 9.908 80.6456 9.52 80.7896 9.128L81.5456 9.404ZM87.9656 9.02C88.2296 9.22 88.5016 9.444 88.7816 9.692C89.0616 9.94 89.3176 10.192 89.5496 10.448C89.7896 10.696 89.9776 10.928 90.1136 11.144L89.3696 11.612C89.2416 11.396 89.0616 11.16 88.8296 10.904C88.6056 10.648 88.3576 10.392 88.0856 10.136C87.8216 9.872 87.5496 9.64 87.2696 9.44L87.9656 9.02ZM83.9216 8.516C84.1536 8.628 84.3936 8.76 84.6416 8.912C84.8976 9.056 85.1336 9.204 85.3496 9.356C85.5736 9.5 85.7576 9.636 85.9016 9.764L85.3736 10.304C85.2376 10.176 85.0576 10.036 84.8336 9.884C84.6176 9.724 84.3856 9.568 84.1376 9.416C83.8896 9.256 83.6536 9.112 83.4296 8.984L83.9216 8.516ZM83.0336 10.76C83.0336 10.904 83.0776 10.996 83.1656 11.036C83.2536 11.076 83.4536 11.096 83.7656 11.096C83.8376 11.096 83.9656 11.096 84.1496 11.096C84.3416 11.096 84.5536 11.096 84.7856 11.096C85.0176 11.096 85.2336 11.096 85.4336 11.096C85.6416 11.096 85.7936 11.096 85.8896 11.096C86.0576 11.096 86.1816 11.068 86.2616 11.012C86.3496 10.964 86.4096 10.852 86.4416 10.676C86.4816 10.5 86.5096 10.236 86.5256 9.884C86.6296 9.948 86.7576 10.008 86.9096 10.064C87.0616 10.12 87.1976 10.16 87.3176 10.184C87.2856 10.64 87.2256 10.984 87.1376 11.216C87.0496 11.456 86.9136 11.62 86.7296 11.708C86.5456 11.804 86.2896 11.852 85.9616 11.852C85.9136 11.852 85.8096 11.852 85.6496 11.852C85.4976 11.852 85.3216 11.852 85.1216 11.852C84.9296 11.852 84.7336 11.852 84.5336 11.852C84.3336 11.852 84.1536 11.852 83.9936 11.852C83.8416 11.852 83.7416 11.852 83.6936 11.852C83.2856 11.852 82.9696 11.82 82.7456 11.756C82.5296 11.7 82.3776 11.592 82.2896 11.432C82.2016 11.272 82.1576 11.048 82.1576 10.76V9.212H83.0336V10.76ZM97.2896 0.92H98.2016V10.952C98.2016 11.224 98.1576 11.424 98.0696 11.552C97.9896 11.688 97.8536 11.788 97.6616 11.852C97.4776 11.916 97.2216 11.956 96.8936 11.972C96.5736 11.988 96.1616 11.996 95.6576 11.996C95.6336 11.884 95.5896 11.752 95.5256 11.6C95.4616 11.456 95.3976 11.336 95.3336 11.24C95.5736 11.248 95.8056 11.252 96.0296 11.252C96.2616 11.252 96.4616 11.248 96.6296 11.24C96.8056 11.24 96.9256 11.24 96.9896 11.24C97.1016 11.232 97.1776 11.208 97.2176 11.168C97.2656 11.128 97.2896 11.056 97.2896 10.952V0.92ZM92.5856 1.88H103.002V2.624H92.5856V1.88ZM94.7096 3.968V4.82H100.89V3.968H94.7096ZM93.8456 3.332H101.802V5.456H93.8456V3.332ZM93.4976 6.308H101.994V10.664H101.082V6.968H93.4976V6.308ZM92.3576 7.808H103.242V8.528H92.3576V7.808ZM93.3896 9.428H101.55V10.136H93.3896V9.428ZM105.618 2.312H109.698V3.164H105.618V2.312ZM107.19 2.768H108.09V8.54H107.19V2.768ZM105.366 8.816C105.734 8.704 106.158 8.572 106.638 8.42C107.126 8.26 107.642 8.088 108.186 7.904C108.738 7.72 109.286 7.536 109.83 7.352L109.986 8.144C109.234 8.416 108.482 8.688 107.73 8.96C106.978 9.224 106.31 9.464 105.726 9.68L105.366 8.816ZM109.746 1.496H116.526V2.276H109.746V1.496ZM111.186 5.984V7.16H115.182V5.984H111.186ZM111.186 7.82V9.008H115.182V7.82H111.186ZM111.186 4.16V5.324H115.182V4.16H111.186ZM110.334 3.452H116.07V9.704H110.334V3.452ZM112.662 1.88L113.694 2.024C113.59 2.368 113.478 2.72 113.358 3.08C113.238 3.44 113.13 3.748 113.034 4.004L112.218 3.836C112.298 3.564 112.382 3.244 112.47 2.876C112.558 2.5 112.622 2.168 112.662 1.88ZM111.642 9.896L112.422 10.4C112.166 10.6 111.862 10.8 111.51 11C111.166 11.192 110.806 11.372 110.43 11.54C110.054 11.708 109.69 11.852 109.338 11.972C109.274 11.876 109.186 11.764 109.074 11.636C108.97 11.516 108.87 11.416 108.774 11.336C109.118 11.224 109.474 11.092 109.842 10.94C110.21 10.78 110.55 10.608 110.862 10.424C111.182 10.24 111.442 10.064 111.642 9.896ZM113.622 10.424L114.306 9.932C114.578 10.068 114.866 10.224 115.17 10.4C115.474 10.576 115.762 10.756 116.034 10.94C116.314 11.124 116.546 11.292 116.73 11.444L116.022 11.984C115.854 11.832 115.634 11.664 115.362 11.48C115.09 11.296 114.802 11.112 114.498 10.928C114.194 10.736 113.902 10.568 113.622 10.424ZM123.702 1.508C123.654 1.748 123.59 2.032 123.51 2.36C123.438 2.68 123.318 3.044 123.15 3.452C123.006 3.812 122.826 4.184 122.61 4.568C122.402 4.952 122.178 5.3 121.938 5.612C122.09 5.516 122.262 5.436 122.454 5.372C122.646 5.3 122.842 5.248 123.042 5.216C123.25 5.184 123.438 5.168 123.606 5.168C124.07 5.168 124.462 5.3 124.782 5.564C125.102 5.82 125.262 6.196 125.262 6.692C125.262 6.844 125.262 7.04 125.262 7.28C125.262 7.512 125.262 7.76 125.262 8.024C125.27 8.28 125.278 8.532 125.286 8.78C125.294 9.028 125.298 9.244 125.298 9.428H124.374C124.382 9.268 124.39 9.08 124.398 8.864C124.406 8.648 124.41 8.42 124.41 8.18C124.418 7.94 124.418 7.712 124.41 7.496C124.41 7.28 124.41 7.096 124.41 6.944C124.41 6.592 124.302 6.336 124.086 6.176C123.878 6.008 123.614 5.924 123.294 5.924C122.918 5.924 122.546 6.008 122.178 6.176C121.818 6.336 121.502 6.544 121.23 6.8C121.054 6.968 120.878 7.16 120.702 7.376C120.534 7.584 120.346 7.808 120.138 8.048L119.322 7.448C119.898 6.888 120.378 6.364 120.762 5.876C121.146 5.388 121.458 4.936 121.698 4.52C121.938 4.096 122.126 3.716 122.262 3.38C122.39 3.044 122.494 2.708 122.574 2.372C122.654 2.028 122.702 1.712 122.718 1.424L123.702 1.508ZM119.598 2.804C119.918 2.844 120.266 2.876 120.642 2.9C121.018 2.924 121.346 2.936 121.626 2.936C122.162 2.936 122.738 2.924 123.354 2.9C123.97 2.868 124.59 2.824 125.214 2.768C125.846 2.712 126.446 2.632 127.014 2.528L127.002 3.416C126.586 3.488 126.142 3.548 125.67 3.596C125.198 3.636 124.718 3.672 124.23 3.704C123.742 3.728 123.27 3.748 122.814 3.764C122.366 3.772 121.95 3.776 121.566 3.776C121.398 3.776 121.202 3.776 120.978 3.776C120.762 3.768 120.534 3.76 120.294 3.752C120.054 3.736 119.822 3.72 119.598 3.704V2.804ZM128.766 5.708C128.662 5.732 128.546 5.768 128.418 5.816C128.298 5.856 128.174 5.9 128.046 5.948C127.926 5.996 127.81 6.044 127.698 6.092C127.282 6.252 126.798 6.448 126.246 6.68C125.694 6.912 125.13 7.18 124.554 7.484C124.154 7.684 123.802 7.896 123.498 8.12C123.194 8.336 122.954 8.564 122.778 8.804C122.602 9.036 122.514 9.292 122.514 9.572C122.514 9.804 122.566 9.992 122.67 10.136C122.782 10.28 122.938 10.392 123.138 10.472C123.338 10.544 123.566 10.592 123.822 10.616C124.086 10.64 124.374 10.652 124.686 10.652C125.15 10.652 125.678 10.628 126.27 10.58C126.87 10.524 127.434 10.452 127.962 10.364L127.938 11.324C127.634 11.364 127.29 11.4 126.906 11.432C126.53 11.464 126.146 11.488 125.754 11.504C125.37 11.528 125.002 11.54 124.65 11.54C124.082 11.54 123.562 11.488 123.09 11.384C122.626 11.28 122.254 11.096 121.974 10.832C121.694 10.568 121.554 10.192 121.554 9.704C121.554 9.344 121.638 9.016 121.806 8.72C121.974 8.416 122.198 8.14 122.478 7.892C122.766 7.644 123.082 7.416 123.426 7.208C123.77 6.992 124.122 6.796 124.482 6.62C124.866 6.412 125.226 6.232 125.562 6.08C125.906 5.928 126.23 5.788 126.534 5.66C126.838 5.532 127.122 5.404 127.386 5.276C127.562 5.196 127.73 5.12 127.89 5.048C128.05 4.976 128.21 4.896 128.37 4.808L128.766 5.708ZM137.646 6.728H142.338V7.424H137.646V6.728ZM137.646 8.696H142.338V9.404H137.646V8.696ZM137.658 10.664H142.902V11.432H137.658V10.664ZM136.278 2.144H142.842V4.208H142.026V2.924H137.07V4.208H136.278V2.144ZM139.59 5.288H140.43V11.072H139.59V5.288ZM137.958 4.724H142.542V5.504H137.958V11.96H137.106V5.528L137.886 4.724H137.958ZM139.098 0.908L139.95 1.076C139.614 2.292 139.15 3.388 138.558 4.364C137.974 5.34 137.274 6.148 136.458 6.788C136.418 6.732 136.358 6.664 136.278 6.584C136.206 6.496 136.126 6.412 136.038 6.332C135.958 6.252 135.886 6.188 135.822 6.14C136.614 5.556 137.282 4.816 137.826 3.92C138.378 3.016 138.802 2.012 139.098 0.908ZM140.346 3.296L141.186 3.5C141.042 3.812 140.894 4.128 140.742 4.448C140.598 4.76 140.458 5.028 140.322 5.252L139.638 5.06C139.766 4.82 139.898 4.532 140.034 4.196C140.17 3.852 140.274 3.552 140.346 3.296ZM132.018 1.724H136.254V2.564H132.018V1.724ZM133.23 5.228H135.93V10.484H133.23V9.692H135.15V6.032H133.23V5.228ZM133.422 2.12L134.286 2.252C134.166 3.092 134.01 3.908 133.818 4.7C133.634 5.484 133.406 6.216 133.134 6.896C132.87 7.576 132.554 8.18 132.186 8.708C132.154 8.644 132.106 8.56 132.042 8.456C131.978 8.344 131.914 8.236 131.85 8.132C131.786 8.02 131.726 7.932 131.67 7.868C131.99 7.412 132.262 6.884 132.486 6.284C132.718 5.676 132.91 5.02 133.062 4.316C133.214 3.604 133.334 2.872 133.422 2.12ZM132.858 5.228H133.614V11.432H132.858V5.228ZM152.022 1.76H152.85C152.794 2.24 152.706 2.72 152.586 3.2C152.466 3.672 152.298 4.124 152.082 4.556C151.866 4.988 151.582 5.388 151.23 5.756C150.878 6.116 150.438 6.428 149.91 6.692C149.862 6.596 149.782 6.484 149.67 6.356C149.566 6.228 149.47 6.128 149.382 6.056C149.87 5.832 150.274 5.56 150.594 5.24C150.914 4.912 151.17 4.56 151.362 4.184C151.554 3.8 151.698 3.404 151.794 2.996C151.898 2.58 151.974 2.168 152.022 1.76ZM149.826 3.476L150.258 2.84C150.674 2.984 151.106 3.156 151.554 3.356C152.002 3.548 152.422 3.752 152.814 3.968C153.214 4.176 153.546 4.372 153.81 4.556L153.366 5.264C153.102 5.072 152.77 4.864 152.37 4.64C151.978 4.416 151.558 4.2 151.11 3.992C150.67 3.784 150.242 3.612 149.826 3.476ZM154.854 1.436H155.706C155.706 1.436 155.706 1.46 155.706 1.508C155.706 1.548 155.706 1.6 155.706 1.664C155.706 1.72 155.706 1.768 155.706 1.808C155.666 2.752 155.622 3.516 155.574 4.1C155.526 4.684 155.47 5.128 155.406 5.432C155.342 5.736 155.258 5.944 155.154 6.056C155.066 6.176 154.966 6.26 154.854 6.308C154.742 6.356 154.602 6.388 154.434 6.404C154.29 6.42 154.09 6.428 153.834 6.428C153.586 6.42 153.318 6.408 153.03 6.392C153.022 6.272 152.998 6.136 152.958 5.984C152.918 5.824 152.862 5.688 152.79 5.576C153.07 5.6 153.326 5.616 153.558 5.624C153.79 5.624 153.954 5.624 154.05 5.624C154.226 5.64 154.354 5.6 154.434 5.504C154.506 5.424 154.566 5.248 154.614 4.976C154.67 4.704 154.718 4.296 154.758 3.752C154.798 3.208 154.83 2.484 154.854 1.58V1.436ZM151.182 7.82H152.01V10.724C152.01 10.868 152.034 10.96 152.082 11C152.13 11.04 152.238 11.06 152.406 11.06C152.438 11.06 152.506 11.06 152.61 11.06C152.714 11.06 152.826 11.06 152.946 11.06C153.074 11.06 153.19 11.06 153.294 11.06C153.398 11.06 153.478 11.06 153.534 11.06C153.638 11.06 153.718 11.032 153.774 10.976C153.83 10.912 153.87 10.784 153.894 10.592C153.918 10.4 153.934 10.1 153.942 9.692C153.998 9.74 154.07 9.788 154.158 9.836C154.246 9.876 154.338 9.912 154.434 9.944C154.53 9.976 154.618 10.004 154.698 10.028C154.674 10.516 154.626 10.892 154.554 11.156C154.482 11.428 154.37 11.612 154.218 11.708C154.074 11.812 153.874 11.864 153.618 11.864C153.578 11.864 153.494 11.864 153.366 11.864C153.238 11.864 153.102 11.864 152.958 11.864C152.814 11.864 152.678 11.864 152.55 11.864C152.43 11.864 152.342 11.864 152.286 11.864C151.99 11.864 151.758 11.832 151.59 11.768C151.43 11.704 151.322 11.588 151.266 11.42C151.21 11.252 151.182 11.024 151.182 10.736V7.82ZM150.042 8.228L150.762 8.42C150.722 8.772 150.662 9.128 150.582 9.488C150.51 9.848 150.406 10.188 150.27 10.508C150.134 10.82 149.962 11.088 149.754 11.312L149.082 10.88C149.274 10.68 149.43 10.44 149.55 10.16C149.678 9.872 149.782 9.564 149.862 9.236C149.942 8.9 150.002 8.564 150.042 8.228ZM151.374 6.728L151.914 6.2C152.178 6.328 152.446 6.484 152.718 6.668C152.99 6.852 153.246 7.04 153.486 7.232C153.726 7.424 153.918 7.604 154.062 7.772L153.51 8.372C153.366 8.204 153.178 8.02 152.946 7.82C152.714 7.62 152.462 7.428 152.19 7.244C151.918 7.052 151.646 6.88 151.374 6.728ZM154.182 8.312L154.914 8.012C155.13 8.308 155.33 8.628 155.514 8.972C155.706 9.308 155.866 9.644 155.994 9.98C156.13 10.316 156.226 10.62 156.282 10.892L155.478 11.216C155.43 10.944 155.342 10.64 155.214 10.304C155.086 9.968 154.93 9.628 154.746 9.284C154.57 8.932 154.382 8.608 154.182 8.312ZM149.922 1.436H155.238V2.204H149.922V1.436ZM145.578 4.556H148.986V5.264H145.578V4.556ZM145.626 1.34H148.95V2.06H145.626V1.34ZM145.578 6.152H148.986V6.872H145.578V6.152ZM145.038 2.912H149.334V3.668H145.038V2.912ZM145.986 7.772H148.998V11.276H145.986V10.532H148.218V8.528H145.986V7.772ZM145.566 7.772H146.334V11.828H145.566V7.772ZM161.862 1.652C161.83 1.852 161.806 2.056 161.79 2.264C161.774 2.464 161.762 2.664 161.754 2.864C161.738 3.2 161.722 3.616 161.706 4.112C161.69 4.608 161.674 5.136 161.658 5.696C161.642 6.248 161.63 6.8 161.622 7.352C161.614 7.904 161.61 8.4 161.61 8.84C161.61 9.28 161.694 9.632 161.862 9.896C162.03 10.16 162.262 10.348 162.558 10.46C162.854 10.572 163.194 10.628 163.578 10.628C164.122 10.628 164.614 10.56 165.054 10.424C165.494 10.28 165.886 10.092 166.23 9.86C166.574 9.62 166.878 9.352 167.142 9.056C167.414 8.76 167.658 8.456 167.874 8.144L168.558 8.96C168.35 9.248 168.094 9.548 167.79 9.86C167.494 10.164 167.142 10.448 166.734 10.712C166.326 10.976 165.854 11.192 165.318 11.36C164.79 11.528 164.198 11.612 163.542 11.612C162.974 11.612 162.47 11.524 162.03 11.348C161.59 11.172 161.246 10.888 160.998 10.496C160.75 10.104 160.626 9.584 160.626 8.936C160.626 8.576 160.63 8.18 160.638 7.748C160.646 7.308 160.658 6.856 160.674 6.392C160.69 5.928 160.702 5.476 160.71 5.036C160.718 4.588 160.726 4.176 160.734 3.8C160.742 3.424 160.746 3.112 160.746 2.864C160.746 2.64 160.738 2.424 160.722 2.216C160.706 2.008 160.682 1.816 160.65 1.64L161.862 1.652ZM171.638 3.032C171.87 3.024 172.078 3.016 172.262 3.008C172.446 2.992 172.594 2.98 172.706 2.972C172.898 2.948 173.174 2.92 173.534 2.888C173.902 2.848 174.322 2.808 174.794 2.768C175.266 2.72 175.774 2.672 176.318 2.624C176.862 2.576 177.41 2.528 177.962 2.48C178.402 2.44 178.818 2.408 179.21 2.384C179.602 2.352 179.966 2.328 180.302 2.312C180.638 2.288 180.938 2.272 181.202 2.264V3.224C180.978 3.216 180.722 3.216 180.434 3.224C180.146 3.232 179.862 3.252 179.582 3.284C179.302 3.308 179.058 3.352 178.85 3.416C178.426 3.552 178.042 3.76 177.698 4.04C177.362 4.312 177.074 4.628 176.834 4.988C176.594 5.34 176.41 5.712 176.282 6.104C176.162 6.488 176.102 6.856 176.102 7.208C176.102 7.68 176.182 8.092 176.342 8.444C176.502 8.788 176.718 9.08 176.99 9.32C177.27 9.56 177.586 9.756 177.938 9.908C178.298 10.06 178.674 10.172 179.066 10.244C179.458 10.316 179.85 10.36 180.242 10.376L179.894 11.372C179.454 11.356 179.006 11.292 178.55 11.18C178.102 11.076 177.674 10.924 177.266 10.724C176.858 10.516 176.494 10.256 176.174 9.944C175.854 9.632 175.602 9.268 175.418 8.852C175.234 8.436 175.142 7.96 175.142 7.424C175.142 6.8 175.25 6.224 175.466 5.696C175.69 5.16 175.974 4.692 176.318 4.292C176.662 3.892 177.018 3.584 177.386 3.368C177.13 3.4 176.814 3.436 176.438 3.476C176.062 3.516 175.654 3.56 175.214 3.608C174.782 3.648 174.35 3.696 173.918 3.752C173.486 3.808 173.078 3.864 172.694 3.92C172.318 3.968 172.002 4.02 171.746 4.076L171.638 3.032ZM70.6376 18.64C70.6136 18.744 70.5896 18.86 70.5656 18.988C70.5416 19.108 70.5176 19.228 70.4936 19.348C70.4696 19.492 70.4336 19.688 70.3856 19.936C70.3456 20.184 70.3016 20.448 70.2536 20.728C70.2056 21 70.1496 21.26 70.0856 21.508C70.0056 21.852 69.9056 22.24 69.7856 22.672C69.6656 23.096 69.5296 23.548 69.3776 24.028C69.2256 24.508 69.0536 25 68.8616 25.504C68.6696 26 68.4576 26.496 68.2256 26.992C67.9936 27.48 67.7416 27.94 67.4696 28.372L66.4856 27.988C66.7656 27.62 67.0216 27.208 67.2536 26.752C67.4936 26.296 67.7136 25.824 67.9136 25.336C68.1136 24.84 68.2936 24.352 68.4536 23.872C68.6216 23.392 68.7616 22.948 68.8736 22.54C68.9856 22.132 69.0736 21.78 69.1376 21.484C69.2496 21.004 69.3416 20.508 69.4136 19.996C69.4856 19.476 69.5216 18.984 69.5216 18.52L70.6376 18.64ZM74.7656 19.912C74.9576 20.16 75.1576 20.468 75.3656 20.836C75.5816 21.204 75.7896 21.596 75.9896 22.012C76.1976 22.428 76.3856 22.828 76.5536 23.212C76.7216 23.596 76.8576 23.928 76.9616 24.208L76.0256 24.652C75.9376 24.348 75.8176 24 75.6656 23.608C75.5136 23.208 75.3376 22.804 75.1376 22.396C74.9456 21.98 74.7416 21.592 74.5256 21.232C74.3176 20.864 74.1056 20.556 73.8896 20.308L74.7656 19.912ZM66.3176 21.268C66.5016 21.284 66.6776 21.292 66.8456 21.292C67.0136 21.284 67.1936 21.276 67.3856 21.268C67.5696 21.26 67.8016 21.248 68.0816 21.232C68.3616 21.208 68.6656 21.184 68.9936 21.16C69.3296 21.136 69.6576 21.112 69.9776 21.088C70.3056 21.056 70.6056 21.032 70.8776 21.016C71.1576 20.992 71.3776 20.98 71.5376 20.98C71.8976 20.98 72.2216 21.036 72.5096 21.148C72.8056 21.26 73.0416 21.464 73.2176 21.76C73.3936 22.056 73.4816 22.472 73.4816 23.008C73.4816 23.48 73.4576 23.992 73.4096 24.544C73.3696 25.088 73.2976 25.608 73.1936 26.104C73.0896 26.6 72.9536 27.012 72.7856 27.34C72.6016 27.748 72.3616 28.016 72.0656 28.144C71.7696 28.28 71.4256 28.348 71.0336 28.348C70.8096 28.348 70.5656 28.328 70.3016 28.288C70.0376 28.256 69.8096 28.216 69.6176 28.168L69.4616 27.172C69.6376 27.22 69.8136 27.264 69.9896 27.304C70.1736 27.344 70.3496 27.372 70.5176 27.388C70.6856 27.404 70.8256 27.412 70.9376 27.412C71.1536 27.412 71.3496 27.376 71.5256 27.304C71.7096 27.224 71.8616 27.056 71.9816 26.8C72.1096 26.528 72.2136 26.188 72.2936 25.78C72.3816 25.364 72.4456 24.924 72.4856 24.46C72.5336 23.996 72.5576 23.552 72.5576 23.128C72.5576 22.752 72.5056 22.476 72.4016 22.3C72.2976 22.116 72.1496 21.992 71.9576 21.928C71.7656 21.856 71.5416 21.82 71.2856 21.82C71.0776 21.82 70.8016 21.836 70.4576 21.868C70.1136 21.892 69.7456 21.924 69.3536 21.964C68.9696 22.004 68.6096 22.044 68.2736 22.084C67.9376 22.116 67.6776 22.144 67.4936 22.168C67.3576 22.184 67.1816 22.208 66.9656 22.24C66.7576 22.264 66.5736 22.288 66.4136 22.312L66.3176 21.268ZM82.6016 18.592C82.8576 18.672 83.1896 18.76 83.5976 18.856C84.0136 18.952 84.4496 19.048 84.9056 19.144C85.3696 19.232 85.8096 19.312 86.2256 19.384C86.6416 19.448 86.9816 19.492 87.2456 19.516L87.0176 20.44C86.7936 20.408 86.5176 20.364 86.1896 20.308C85.8696 20.252 85.5256 20.188 85.1576 20.116C84.7896 20.044 84.4256 19.972 84.0656 19.9C83.7056 19.82 83.3776 19.748 83.0816 19.684C82.7856 19.612 82.5456 19.552 82.3616 19.504L82.6016 18.592ZM82.3376 20.776C82.2976 20.984 82.2536 21.24 82.2056 21.544C82.1656 21.84 82.1216 22.152 82.0736 22.48C82.0256 22.808 81.9816 23.12 81.9416 23.416C81.9016 23.712 81.8656 23.956 81.8336 24.148C82.4176 23.644 83.0336 23.276 83.6816 23.044C84.3376 22.804 85.0256 22.684 85.7456 22.684C86.3616 22.684 86.8976 22.796 87.3536 23.02C87.8096 23.236 88.1656 23.536 88.4216 23.92C88.6776 24.296 88.8056 24.72 88.8056 25.192C88.8056 25.728 88.6816 26.216 88.4336 26.656C88.1936 27.088 87.8136 27.452 87.2936 27.748C86.7816 28.044 86.1256 28.252 85.3256 28.372C84.5256 28.5 83.5656 28.516 82.4456 28.42L82.1576 27.436C83.4296 27.588 84.4816 27.584 85.3136 27.424C86.1456 27.256 86.7656 26.976 87.1736 26.584C87.5896 26.184 87.7976 25.712 87.7976 25.168C87.7976 24.848 87.7056 24.564 87.5216 24.316C87.3376 24.068 87.0856 23.876 86.7656 23.74C86.4536 23.596 86.0936 23.524 85.6856 23.524C84.9016 23.524 84.1896 23.668 83.5496 23.956C82.9176 24.236 82.3896 24.628 81.9656 25.132C81.8776 25.236 81.8056 25.34 81.7496 25.444C81.6936 25.54 81.6456 25.636 81.6056 25.732L80.7176 25.516C80.7656 25.292 80.8136 25.024 80.8616 24.712C80.9096 24.392 80.9576 24.052 81.0056 23.692C81.0536 23.324 81.0976 22.956 81.1376 22.588C81.1856 22.22 81.2256 21.868 81.2576 21.532C81.2896 21.188 81.3136 20.892 81.3296 20.644L82.3376 20.776ZM92.2256 24.304C92.6496 24.168 93.1616 23.996 93.7616 23.788C94.3616 23.572 94.9696 23.348 95.5856 23.116L95.7296 23.92C95.1616 24.136 94.5896 24.356 94.0136 24.58C93.4456 24.796 92.9256 24.992 92.4536 25.168L92.2256 24.304ZM92.3336 20.344H95.6576V21.184H92.3336V20.344ZM93.6896 17.92H94.5416V27.904C94.5416 28.128 94.5136 28.304 94.4576 28.432C94.4016 28.56 94.3096 28.66 94.1816 28.732C94.0456 28.796 93.8736 28.836 93.6656 28.852C93.4656 28.876 93.2136 28.888 92.9096 28.888C92.8936 28.784 92.8616 28.652 92.8136 28.492C92.7656 28.332 92.7096 28.196 92.6456 28.084C92.8536 28.092 93.0376 28.092 93.1976 28.084C93.3576 28.084 93.4656 28.084 93.5216 28.084C93.6336 28.084 93.6896 28.024 93.6896 27.904V17.92ZM98.1056 19.096V20.356H100.866V19.096H98.1056ZM97.3136 18.412H101.706V21.04H97.3136V18.412ZM96.8216 22.24V23.608H98.4056V22.24H96.8216ZM96.1136 21.58H99.1376V24.28H96.1136V21.58ZM100.542 22.24V23.608H102.174V22.24H100.542ZM99.8216 21.58H102.93V24.28H99.8216V21.58ZM95.8856 25.192H103.194V25.948H95.8856V25.192ZM99.0536 24.28H99.9056V28.972H99.0536V24.28ZM98.8496 25.516L99.5576 25.792C99.2856 26.208 98.9376 26.604 98.5136 26.98C98.0976 27.356 97.6416 27.692 97.1456 27.988C96.6576 28.276 96.1656 28.512 95.6696 28.696C95.6056 28.584 95.5176 28.456 95.4056 28.312C95.2936 28.176 95.1936 28.068 95.1056 27.988C95.5856 27.844 96.0656 27.644 96.5456 27.388C97.0256 27.132 97.4656 26.844 97.8656 26.524C98.2656 26.204 98.5936 25.868 98.8496 25.516ZM100.17 25.612C100.402 25.924 100.69 26.228 101.034 26.524C101.386 26.82 101.766 27.088 102.174 27.328C102.582 27.568 102.986 27.756 103.386 27.892C103.322 27.948 103.254 28.016 103.182 28.096C103.11 28.176 103.038 28.26 102.966 28.348C102.902 28.436 102.846 28.516 102.798 28.588C102.398 28.412 101.99 28.184 101.574 27.904C101.166 27.616 100.782 27.296 100.422 26.944C100.07 26.592 99.7696 26.232 99.5216 25.864L100.17 25.612ZM110.826 19.924H116.526V20.788H110.406L110.826 19.924ZM112.326 22.528H116.25V23.356H112.326V22.528ZM112.326 25.18H116.406V26.032H112.326V25.18ZM111.882 20.212H112.794V28.948H111.882V20.212ZM111.294 18.064L112.158 18.292C111.934 18.924 111.67 19.548 111.366 20.164C111.07 20.772 110.75 21.344 110.406 21.88C110.062 22.416 109.706 22.892 109.338 23.308C109.29 23.26 109.222 23.196 109.134 23.116C109.054 23.036 108.966 22.956 108.87 22.876C108.782 22.796 108.706 22.736 108.642 22.696C109.002 22.32 109.346 21.884 109.674 21.388C110.002 20.892 110.302 20.36 110.574 19.792C110.854 19.224 111.094 18.648 111.294 18.064ZM108.402 17.968L109.266 18.232C109.01 18.904 108.706 19.576 108.354 20.248C108.002 20.912 107.622 21.536 107.214 22.12C106.806 22.696 106.382 23.212 105.942 23.668C105.91 23.596 105.862 23.504 105.798 23.392C105.734 23.272 105.666 23.152 105.594 23.032C105.53 22.912 105.47 22.82 105.414 22.756C105.814 22.364 106.198 21.912 106.566 21.4C106.934 20.888 107.274 20.34 107.586 19.756C107.906 19.164 108.178 18.568 108.402 17.968ZM107.13 21.052L108.018 20.152L108.03 20.176V28.936H107.13V21.052ZM122.262 18.652C122.23 18.852 122.206 19.056 122.19 19.264C122.174 19.464 122.162 19.664 122.154 19.864C122.138 20.2 122.122 20.616 122.106 21.112C122.09 21.608 122.074 22.136 122.058 22.696C122.042 23.248 122.03 23.8 122.022 24.352C122.014 24.904 122.01 25.4 122.01 25.84C122.01 26.28 122.094 26.632 122.262 26.896C122.43 27.16 122.662 27.348 122.958 27.46C123.254 27.572 123.594 27.628 123.978 27.628C124.522 27.628 125.014 27.56 125.454 27.424C125.894 27.28 126.286 27.092 126.63 26.86C126.974 26.62 127.278 26.352 127.542 26.056C127.814 25.76 128.058 25.456 128.274 25.144L128.958 25.96C128.75 26.248 128.494 26.548 128.19 26.86C127.894 27.164 127.542 27.448 127.134 27.712C126.726 27.976 126.254 28.192 125.718 28.36C125.19 28.528 124.598 28.612 123.942 28.612C123.374 28.612 122.87 28.524 122.43 28.348C121.99 28.172 121.646 27.888 121.398 27.496C121.15 27.104 121.026 26.584 121.026 25.936C121.026 25.576 121.03 25.18 121.038 24.748C121.046 24.308 121.058 23.856 121.074 23.392C121.09 22.928 121.102 22.476 121.11 22.036C121.118 21.588 121.126 21.176 121.134 20.8C121.142 20.424 121.146 20.112 121.146 19.864C121.146 19.64 121.138 19.424 121.122 19.216C121.106 19.008 121.082 18.816 121.05 18.64L122.262 18.652ZM132.038 20.032C132.27 20.024 132.478 20.016 132.662 20.008C132.846 19.992 132.994 19.98 133.106 19.972C133.298 19.948 133.574 19.92 133.934 19.888C134.302 19.848 134.722 19.808 135.194 19.768C135.666 19.72 136.174 19.672 136.718 19.624C137.262 19.576 137.81 19.528 138.362 19.48C138.802 19.44 139.218 19.408 139.61 19.384C140.002 19.352 140.366 19.328 140.702 19.312C141.038 19.288 141.338 19.272 141.602 19.264V20.224C141.378 20.216 141.122 20.216 140.834 20.224C140.546 20.232 140.262 20.252 139.982 20.284C139.702 20.308 139.458 20.352 139.25 20.416C138.826 20.552 138.442 20.76 138.098 21.04C137.762 21.312 137.474 21.628 137.234 21.988C136.994 22.34 136.81 22.712 136.682 23.104C136.562 23.488 136.502 23.856 136.502 24.208C136.502 24.68 136.582 25.092 136.742 25.444C136.902 25.788 137.118 26.08 137.39 26.32C137.67 26.56 137.986 26.756 138.338 26.908C138.698 27.06 139.074 27.172 139.466 27.244C139.858 27.316 140.25 27.36 140.642 27.376L140.294 28.372C139.854 28.356 139.406 28.292 138.95 28.18C138.502 28.076 138.074 27.924 137.666 27.724C137.258 27.516 136.894 27.256 136.574 26.944C136.254 26.632 136.002 26.268 135.818 25.852C135.634 25.436 135.542 24.96 135.542 24.424C135.542 23.8 135.65 23.224 135.866 22.696C136.09 22.16 136.374 21.692 136.718 21.292C137.062 20.892 137.418 20.584 137.786 20.368C137.53 20.4 137.214 20.436 136.838 20.476C136.462 20.516 136.054 20.56 135.614 20.608C135.182 20.648 134.75 20.696 134.318 20.752C133.886 20.808 133.478 20.864 133.094 20.92C132.718 20.968 132.402 21.02 132.146 21.076L132.038 20.032ZM144.878 18.808H155.57V19.708H144.878V18.808ZM149.51 19.516H150.458V28.948H149.51V19.516ZM150.026 22.36L150.626 21.676C150.986 21.844 151.366 22.036 151.766 22.252C152.166 22.468 152.562 22.692 152.954 22.924C153.346 23.148 153.71 23.368 154.046 23.584C154.39 23.8 154.682 24 154.922 24.184L154.286 25C154.054 24.816 153.77 24.612 153.434 24.388C153.106 24.156 152.746 23.924 152.354 23.692C151.97 23.452 151.578 23.22 151.178 22.996C150.778 22.764 150.394 22.552 150.026 22.36ZM163.706 19.492C163.666 19.364 163.618 19.216 163.562 19.048C163.514 18.88 163.462 18.716 163.406 18.556L164.426 18.424C164.466 18.656 164.522 18.92 164.594 19.216C164.666 19.504 164.75 19.8 164.846 20.104C164.942 20.4 165.038 20.676 165.134 20.932C165.318 21.452 165.55 21.972 165.83 22.492C166.11 23.004 166.374 23.436 166.622 23.788C166.71 23.9 166.798 24.008 166.886 24.112C166.974 24.216 167.062 24.32 167.15 24.424L166.658 25.096C166.514 25.064 166.322 25.032 166.082 25C165.85 24.968 165.594 24.94 165.314 24.916C165.042 24.884 164.77 24.856 164.498 24.832C164.226 24.808 163.982 24.788 163.766 24.772L163.838 23.968C164.062 23.984 164.298 24.004 164.546 24.028C164.802 24.052 165.042 24.076 165.266 24.1C165.498 24.116 165.686 24.132 165.83 24.148C165.662 23.892 165.482 23.6 165.29 23.272C165.098 22.936 164.91 22.584 164.726 22.216C164.55 21.84 164.394 21.472 164.258 21.112C164.13 20.76 164.022 20.448 163.934 20.176C163.846 19.904 163.77 19.676 163.706 19.492ZM159.314 20.428C159.986 20.508 160.634 20.564 161.258 20.596C161.89 20.628 162.486 20.636 163.046 20.62C163.614 20.604 164.126 20.572 164.582 20.524C164.902 20.484 165.238 20.436 165.59 20.38C165.95 20.324 166.306 20.252 166.658 20.164C167.01 20.076 167.342 19.984 167.654 19.888L167.762 20.824C167.482 20.912 167.174 20.988 166.838 21.052C166.502 21.116 166.166 21.176 165.83 21.232C165.494 21.288 165.178 21.332 164.882 21.364C164.122 21.452 163.27 21.5 162.326 21.508C161.39 21.516 160.394 21.476 159.338 21.388L159.314 20.428ZM161.162 24.256C160.986 24.544 160.846 24.824 160.742 25.096C160.646 25.36 160.598 25.636 160.598 25.924C160.598 26.492 160.846 26.908 161.342 27.172C161.838 27.436 162.53 27.572 163.418 27.58C164.034 27.588 164.598 27.564 165.11 27.508C165.63 27.452 166.098 27.376 166.514 27.28L166.466 28.24C166.098 28.304 165.658 28.364 165.146 28.42C164.634 28.476 164.042 28.504 163.37 28.504C162.61 28.496 161.95 28.4 161.39 28.216C160.838 28.032 160.41 27.76 160.106 27.4C159.802 27.032 159.65 26.576 159.65 26.032C159.65 25.704 159.702 25.38 159.806 25.06C159.918 24.732 160.058 24.392 160.226 24.04L161.162 24.256ZM173.294 19.624C173.278 19.72 173.262 19.84 173.246 19.984C173.238 20.128 173.226 20.272 173.21 20.416C173.202 20.56 173.198 20.684 173.198 20.788C173.19 21.036 173.186 21.32 173.186 21.64C173.194 21.952 173.202 22.28 173.21 22.624C173.226 22.96 173.25 23.296 173.282 23.632C173.346 24.296 173.454 24.88 173.606 25.384C173.758 25.88 173.942 26.268 174.158 26.548C174.382 26.828 174.634 26.968 174.914 26.968C175.066 26.968 175.214 26.9 175.358 26.764C175.502 26.62 175.638 26.432 175.766 26.2C175.902 25.96 176.022 25.696 176.126 25.408C176.238 25.112 176.33 24.816 176.402 24.52L177.158 25.372C176.918 26.052 176.674 26.592 176.426 26.992C176.186 27.384 175.938 27.668 175.682 27.844C175.434 28.02 175.174 28.108 174.902 28.108C174.526 28.108 174.162 27.972 173.81 27.7C173.458 27.42 173.154 26.972 172.898 26.356C172.642 25.732 172.458 24.904 172.346 23.872C172.306 23.52 172.274 23.14 172.25 22.732C172.234 22.324 172.222 21.936 172.214 21.568C172.214 21.2 172.214 20.9 172.214 20.668C172.214 20.532 172.21 20.356 172.202 20.14C172.194 19.924 172.17 19.744 172.13 19.6L173.294 19.624ZM179.546 19.96C179.762 20.232 179.966 20.552 180.158 20.92C180.358 21.28 180.538 21.668 180.698 22.084C180.866 22.492 181.014 22.916 181.142 23.356C181.278 23.796 181.386 24.236 181.466 24.676C181.554 25.108 181.618 25.524 181.658 25.924L180.698 26.32C180.65 25.776 180.566 25.224 180.446 24.664C180.326 24.096 180.178 23.548 180.002 23.02C179.826 22.484 179.622 21.98 179.39 21.508C179.158 21.036 178.898 20.628 178.61 20.284L179.546 19.96Z" fill="#3E4A59"/>
<path d="M57.5312 55.7266C58.0513 55.1814 58.9215 55.1812 59.4414 55.7266C59.9273 56.2363 59.9273 57.0381 59.4414 57.5479L49.3486 68.1367C48.7576 68.7566 47.7678 68.7566 47.1768 68.1367L42.5586 63.292C42.0727 62.7823 42.0729 61.9805 42.5586 61.4707C43.0786 60.9252 43.9487 60.9252 44.4688 61.4707L46.4531 63.5518C47.4382 64.585 49.0872 64.5851 50.0723 63.5518L57.5312 55.7266Z" fill="white" stroke="white"/>
</svg>
