<svg width="235" height="77" viewBox="0 0 235 77" fill="none" xmlns="http://www.w3.org/2000/svg">
<rect x="8" y="7.5" width="227" height="62" rx="30" fill="#3BBC54"/>
<rect x="14" y="13" width="215" height="52" rx="26" fill="white"/>
<path d="M118.18 31.5H121.568V47.88C121.568 48.7573 121.447 49.4293 121.204 49.896C120.98 50.3627 120.579 50.7267 120 50.988C119.421 51.2307 118.693 51.38 117.816 51.436C116.939 51.5107 115.912 51.548 114.736 51.548C114.643 51.1 114.475 50.568 114.232 49.952C114.008 49.3547 113.775 48.832 113.532 48.384C114.073 48.4027 114.615 48.4213 115.156 48.44C115.716 48.4587 116.201 48.468 116.612 48.468C117.023 48.468 117.321 48.468 117.508 48.468C117.769 48.4493 117.947 48.3933 118.04 48.3C118.133 48.2067 118.18 48.048 118.18 47.824V31.5ZM111.236 26.684H126.384V29.736H111.236V26.684ZM125.236 26.684H126.076L126.804 26.516L129.072 28.196C128.363 28.9613 127.551 29.7173 126.636 30.464C125.74 31.192 124.779 31.8827 123.752 32.536C122.744 33.1893 121.717 33.7493 120.672 34.216C120.467 33.9173 120.168 33.5533 119.776 33.124C119.384 32.6947 119.048 32.3587 118.768 32.116C119.627 31.724 120.476 31.2573 121.316 30.716C122.156 30.156 122.921 29.5867 123.612 29.008C124.303 28.4107 124.844 27.8507 125.236 27.328V26.684ZM115.408 34.692H124.536V37.352H115.408V34.692ZM107.484 32.704H113.448V35.728H107.484V32.704ZM114.708 39.116H125.208V41.748H114.708V39.116ZM113.336 43.568H126.58V46.34H113.336V43.568ZM130.444 32.508L133.104 34.608C132.581 35.2427 132.031 35.896 131.452 36.568C130.873 37.24 130.295 37.884 129.716 38.5C129.137 39.0973 128.605 39.6293 128.12 40.096L125.992 38.276C126.477 37.7907 126.991 37.2213 127.532 36.568C128.092 35.9147 128.624 35.2333 129.128 34.524C129.651 33.796 130.089 33.124 130.444 32.508ZM127.392 32.032C127.672 34.0293 128.064 35.9613 128.568 37.828C129.072 39.6947 129.725 41.384 130.528 42.896C131.331 44.408 132.311 45.64 133.468 46.592C133.188 46.7973 132.889 47.068 132.572 47.404C132.255 47.74 131.956 48.0853 131.676 48.44C131.396 48.7947 131.163 49.1307 130.976 49.448C129.707 48.2533 128.643 46.7973 127.784 45.08C126.944 43.344 126.253 41.412 125.712 39.284C125.189 37.156 124.76 34.8973 124.424 32.508L127.392 32.032ZM112.16 32.704H112.804L113.392 32.592L115.436 33.348C115.119 35.7373 114.652 37.9587 114.036 40.012C113.42 42.0653 112.683 43.8853 111.824 45.472C110.965 47.04 110.004 48.3373 108.94 49.364C108.772 49.1027 108.539 48.804 108.24 48.468C107.96 48.132 107.661 47.8147 107.344 47.516C107.045 47.1987 106.765 46.9653 106.504 46.816C107.493 45.92 108.361 44.8 109.108 43.456C109.873 42.0933 110.508 40.5627 111.012 38.864C111.535 37.1467 111.917 35.3267 112.16 33.404V32.704ZM153.544 27.468H156.568C156.437 28.588 156.241 29.7173 155.98 30.856C155.737 31.976 155.364 33.0587 154.86 34.104C154.356 35.1307 153.684 36.1013 152.844 37.016C152.023 37.912 150.959 38.696 149.652 39.368C149.484 38.976 149.213 38.5467 148.84 38.08C148.467 37.6133 148.112 37.2493 147.776 36.988C148.896 36.4467 149.811 35.812 150.52 35.084C151.229 34.356 151.789 33.572 152.2 32.732C152.611 31.892 152.909 31.024 153.096 30.128C153.301 29.232 153.451 28.3453 153.544 27.468ZM148.7 32.256L150.268 29.932C151.201 30.1933 152.153 30.5293 153.124 30.94C154.113 31.3507 155.047 31.78 155.924 32.228C156.82 32.676 157.576 33.096 158.192 33.488L156.596 36.092C155.999 35.644 155.252 35.1867 154.356 34.72C153.479 34.2347 152.545 33.7773 151.556 33.348C150.585 32.9 149.633 32.536 148.7 32.256ZM159.956 26.292H163.092C163.092 26.292 163.092 26.376 163.092 26.544C163.092 26.6933 163.083 26.8707 163.064 27.076C163.064 27.2627 163.055 27.412 163.036 27.524C162.961 29.652 162.868 31.3973 162.756 32.76C162.644 34.104 162.504 35.1493 162.336 35.896C162.187 36.624 161.991 37.1373 161.748 37.436C161.468 37.7907 161.179 38.0427 160.88 38.192C160.6 38.3413 160.264 38.444 159.872 38.5C159.536 38.5747 159.097 38.6213 158.556 38.64C158.015 38.64 157.436 38.6307 156.82 38.612C156.801 38.1453 156.708 37.632 156.54 37.072C156.391 36.4933 156.204 35.9987 155.98 35.588C156.465 35.644 156.904 35.6813 157.296 35.7C157.688 35.7 157.996 35.7 158.22 35.7C158.575 35.7187 158.855 35.6067 159.06 35.364C159.191 35.1773 159.312 34.7947 159.424 34.216C159.536 33.6187 159.629 32.7227 159.704 31.528C159.797 30.3333 159.881 28.756 159.956 26.796V26.292ZM151.78 41.412H154.86V47.516C154.86 47.908 154.897 48.16 154.972 48.272C155.047 48.3653 155.215 48.412 155.476 48.412C155.532 48.412 155.625 48.412 155.756 48.412C155.887 48.412 156.027 48.412 156.176 48.412C156.325 48.412 156.465 48.412 156.596 48.412C156.745 48.412 156.848 48.412 156.904 48.412C157.091 48.412 157.231 48.3467 157.324 48.216C157.417 48.0853 157.492 47.8147 157.548 47.404C157.604 46.9747 157.641 46.3307 157.66 45.472C157.847 45.6213 158.099 45.78 158.416 45.948C158.752 46.0973 159.088 46.2373 159.424 46.368C159.779 46.48 160.096 46.5827 160.376 46.676C160.283 47.8893 160.115 48.832 159.872 49.504C159.648 50.1947 159.321 50.6613 158.892 50.904C158.481 51.1653 157.94 51.296 157.268 51.296C157.137 51.296 156.96 51.296 156.736 51.296C156.531 51.296 156.316 51.296 156.092 51.296C155.868 51.296 155.653 51.296 155.448 51.296C155.243 51.296 155.075 51.296 154.944 51.296C154.085 51.296 153.423 51.1747 152.956 50.932C152.508 50.708 152.2 50.3253 152.032 49.784C151.864 49.2427 151.78 48.5053 151.78 47.572V41.412ZM148.924 42.504L151.584 43.204C151.509 44.0253 151.388 44.856 151.22 45.696C151.052 46.536 150.828 47.3293 150.548 48.076C150.268 48.804 149.895 49.448 149.428 50.008L146.964 48.524C147.356 48.0387 147.683 47.4787 147.944 46.844C148.205 46.1907 148.411 45.4907 148.56 44.744C148.728 43.9973 148.849 43.2507 148.924 42.504ZM152.424 39.48L154.356 37.52C154.953 37.8187 155.569 38.1733 156.204 38.584C156.839 38.976 157.436 39.396 157.996 39.844C158.575 40.2733 159.041 40.684 159.396 41.076L157.296 43.26C156.979 42.8493 156.549 42.42 156.008 41.972C155.485 41.524 154.907 41.0853 154.272 40.656C153.637 40.208 153.021 39.816 152.424 39.48ZM158.584 42.952L161.3 41.86C161.804 42.5693 162.261 43.3347 162.672 44.156C163.083 44.9773 163.437 45.7987 163.736 46.62C164.035 47.4227 164.249 48.1507 164.38 48.804L161.412 50.036C161.337 49.364 161.16 48.6267 160.88 47.824C160.6 47.0027 160.264 46.1627 159.872 45.304C159.48 44.4453 159.051 43.6613 158.584 42.952ZM149.092 26.292H161.384V29.092H149.092V26.292ZM138.9 33.796H147.104V36.344H138.9V33.796ZM139.012 26.096H147.048V28.616H139.012V26.096ZM138.9 37.632H147.104V40.152H138.9V37.632ZM137.64 29.848H147.86V32.508H137.64V29.848ZM140.356 41.496H147.16V50.036H140.356V47.376H144.36V44.156H140.356V41.496ZM138.844 41.496H141.616V51.128H138.844V41.496Z" fill="#3BBC54"/>
<mask id="mask0_565_1017" style="mask-type:alpha" maskUnits="userSpaceOnUse" x="-7" y="-7" width="91" height="91">
<rect x="7.27002" y="-6.10156" width="77" height="77" transform="rotate(10 7.27002 -6.10156)" fill="#D9D9D9"/>
</mask>
<g mask="url(#mask0_565_1017)">
<path d="M33.2127 68.5163C29.061 67.7842 25.2976 66.3084 21.9224 64.0887C18.5472 61.8689 15.7467 59.1704 13.521 55.9931C11.2952 52.8157 9.71598 49.2623 8.78319 45.3329C7.85092 41.4035 7.75078 37.3633 8.48274 33.2121C9.2148 29.0604 10.6909 25.297 12.9112 21.9219C15.1309 18.5467 17.8297 15.7463 21.0076 13.5206C24.1854 11.295 27.7394 9.71581 31.6693 8.78311C35.5992 7.85094 39.6403 7.75093 43.7925 8.48308C47.1206 9.06992 50.1814 10.1254 52.975 11.6497C55.7686 13.1739 58.2472 15.0498 60.4107 17.2774L56.3651 20.1794C54.5714 18.4134 52.5528 16.9297 50.3093 15.7284C48.0659 14.5265 45.6151 13.6912 42.9568 13.2225C35.953 11.9875 29.5552 13.3978 23.7633 17.4533C17.9715 21.5088 14.4581 27.0385 13.2231 34.0422C11.9882 41.046 13.3984 47.4438 17.4539 53.2357C21.5095 59.0276 27.0391 62.541 34.0429 63.7759C41.0466 65.0109 47.4444 63.6006 53.2363 59.5451C59.0282 55.4896 62.5416 49.9599 63.7766 42.9562C63.9723 41.8461 64.0929 40.7355 64.1384 39.6245C64.1839 38.5135 64.1512 37.4196 64.0403 36.3429L68.5483 33.1599C68.8412 34.8861 68.9892 36.6351 68.9923 38.4068C68.9954 40.178 68.8367 41.973 68.516 43.7919C67.7838 47.9441 66.308 51.7073 64.0885 55.0814C61.8689 58.4556 59.1705 61.2552 55.9933 63.4804C52.816 65.7056 49.2628 67.2841 45.3335 68.2159C41.4042 69.1481 37.3639 69.2483 33.2127 68.5163ZM31.6457 51.1486L21.4863 36.6395L25.4028 33.8971L32.8199 44.4898L69.4956 18.7669L72.2379 22.6834L31.6457 51.1486Z" fill="#3BBC54"/>
</g>
</svg>
