<svg width="25" height="28" viewBox="0 0 25 28" fill="none" xmlns="http://www.w3.org/2000/svg">
<g filter="url(#filter0_d_725_1179)">
<path d="M10 16C9.45 16 8.97933 15.8043 8.588 15.413C8.196 15.021 8 14.55 8 14V2C8 1.45 8.196 0.979 8.588 0.587C8.97933 0.195667 9.45 0 10 0H19C19.55 0 20.021 0.195667 20.413 0.587C20.8043 0.979 21 1.45 21 2V14C21 14.55 20.8043 15.021 20.413 15.413C20.021 15.8043 19.55 16 19 16H10ZM6 20C5.45 20 4.979 19.8043 4.587 19.413C4.19567 19.021 4 18.55 4 18V5C4 4.71667 4.096 4.479 4.288 4.287C4.47933 4.09567 4.71667 4 5 4C5.28333 4 5.521 4.09567 5.713 4.287C5.90433 4.479 6 4.71667 6 5V18H16C16.2833 18 16.521 18.096 16.713 18.288C16.9043 18.4793 17 18.7167 17 19C17 19.2833 16.9043 19.5207 16.713 19.712C16.521 19.904 16.2833 20 16 20H6Z" fill="#175899"/>
</g>
<defs>
<filter id="filter0_d_725_1179" x="0" y="0" width="25" height="28" filterUnits="userSpaceOnUse" color-interpolation-filters="sRGB">
<feFlood flood-opacity="0" result="BackgroundImageFix"/>
<feColorMatrix in="SourceAlpha" type="matrix" values="0 0 0 0 0 0 0 0 0 0 0 0 0 0 0 0 0 0 127 0" result="hardAlpha"/>
<feOffset dy="4"/>
<feGaussianBlur stdDeviation="2"/>
<feComposite in2="hardAlpha" operator="out"/>
<feColorMatrix type="matrix" values="0 0 0 0 0 0 0 0 0 0 0 0 0 0 0 0 0 0 0.25 0"/>
<feBlend mode="normal" in2="BackgroundImageFix" result="effect1_dropShadow_725_1179"/>
<feBlend mode="normal" in="SourceGraphic" in2="effect1_dropShadow_725_1179" result="shape"/>
</filter>
</defs>
</svg>
