<svg width="40" height="52" viewBox="0 0 40 52" fill="none" xmlns="http://www.w3.org/2000/svg">
<path d="M20.0002 4.5C20.3979 4.50004 20.7795 4.65828 21.0608 4.93945L35.054 18.9326C35.3272 19.2155 35.4792 19.595 35.4758 19.9883C35.4723 20.3815 35.3144 20.7581 35.0364 21.0361C34.7583 21.3142 34.3818 21.4712 33.9885 21.4746C33.6444 21.4776 33.3116 21.3623 33.0442 21.1504L32.9338 21.0537L31.5002 19.6201V34C31.5001 34.3977 31.342 34.7793 31.0608 35.0605C30.7795 35.3417 30.3979 35.5 30.0002 35.5H26.0002C25.6026 35.5 25.221 35.3417 24.9397 35.0605C24.6585 34.7793 24.5004 34.3977 24.5002 34V30C24.5002 29.337 24.2367 28.7003 23.7678 28.2314C23.299 27.7628 22.6631 27.5 22.0002 27.5H18.0002C17.3374 27.5 16.7015 27.7628 16.2327 28.2314C15.7638 28.7003 15.5002 29.337 15.5002 30V34C15.5001 34.3977 15.342 34.7793 15.0608 35.0605C14.7795 35.3417 14.3979 35.5 14.0002 35.5H10.0002C9.60256 35.5 9.22097 35.3417 8.9397 35.0605C8.65849 34.7793 8.50036 34.3977 8.50024 34V19.6201L7.06665 21.0537C6.78383 21.3269 6.40514 21.4779 6.01196 21.4746C5.61881 21.4712 5.2422 21.3141 4.96411 21.0361C4.68606 20.7581 4.52814 20.3815 4.52466 19.9883C4.52127 19.5979 4.67034 19.2217 4.9397 18.9395L18.9397 4.93945C19.221 4.65825 19.6025 4.5 20.0002 4.5Z" fill="white" stroke="white"/>
<path d="M11.0414 41.99C11.0347 42.0367 11.0214 42.1133 11.0014 42.22C10.988 42.3267 10.9747 42.44 10.9614 42.56C10.9547 42.68 10.9514 42.78 10.9514 42.86C10.9514 43.06 10.9514 43.28 10.9514 43.52C10.9514 43.76 10.9514 44 10.9514 44.24C10.9514 44.4733 10.9514 44.6867 10.9514 44.88C10.9514 45.0133 10.9514 45.2 10.9514 45.44C10.9514 45.68 10.9514 45.95 10.9514 46.25C10.9514 46.55 10.9514 46.8633 10.9514 47.19C10.9514 47.51 10.9514 47.8233 10.9514 48.13C10.9514 48.43 10.9514 48.7033 10.9514 48.95C10.9514 49.19 10.9514 49.38 10.9514 49.52C10.9514 49.8067 10.8647 50.0333 10.6914 50.2C10.5247 50.3733 10.2614 50.46 9.90137 50.46C9.72137 50.46 9.53803 50.4567 9.35137 50.45C9.1647 50.4433 8.98137 50.4333 8.80137 50.42C8.62137 50.4067 8.44803 50.39 8.28137 50.37L8.15137 49.13C8.37137 49.17 8.58137 49.2 8.78137 49.22C8.98137 49.24 9.1447 49.25 9.27137 49.25C9.39803 49.25 9.48803 49.2233 9.54137 49.17C9.5947 49.11 9.6247 49.0167 9.63137 48.89C9.63137 48.83 9.63137 48.7 9.63137 48.5C9.63803 48.3 9.64137 48.0633 9.64137 47.79C9.64137 47.5167 9.64137 47.2267 9.64137 46.92C9.64137 46.6133 9.64137 46.32 9.64137 46.04C9.64137 45.76 9.64137 45.5167 9.64137 45.31C9.64137 45.1033 9.64137 44.96 9.64137 44.88C9.64137 44.76 9.64137 44.58 9.64137 44.34C9.64137 44.0933 9.64137 43.8333 9.64137 43.56C9.64137 43.2867 9.64137 43.0533 9.64137 42.86C9.64137 42.7267 9.63137 42.57 9.61137 42.39C9.59137 42.21 9.5747 42.0767 9.56137 41.99H11.0414ZM6.14137 43.59C6.28803 43.6033 6.4447 43.62 6.61137 43.64C6.7847 43.6533 6.94803 43.66 7.10137 43.66C7.18803 43.66 7.35137 43.66 7.59137 43.66C7.83803 43.66 8.12803 43.66 8.46137 43.66C8.80137 43.66 9.16803 43.66 9.56137 43.66C9.9547 43.66 10.348 43.66 10.7414 43.66C11.1347 43.66 11.5047 43.66 11.8514 43.66C12.198 43.66 12.4947 43.66 12.7414 43.66C12.9947 43.66 13.1714 43.66 13.2714 43.66C13.4114 43.66 13.578 43.6533 13.7714 43.64C13.9647 43.6267 14.128 43.61 14.2614 43.59V44.9C14.108 44.8867 13.9414 44.88 13.7614 44.88C13.5814 44.8733 13.4214 44.87 13.2814 44.87C13.1814 44.87 13.008 44.87 12.7614 44.87C12.5147 44.87 12.218 44.87 11.8714 44.87C11.5247 44.87 11.1547 44.87 10.7614 44.87C10.368 44.87 9.9747 44.87 9.58137 44.87C9.1947 44.87 8.82803 44.87 8.48137 44.87C8.14137 44.87 7.85137 44.87 7.61137 44.87C7.37137 44.87 7.20137 44.87 7.10137 44.87C6.9547 44.87 6.79137 44.8733 6.61137 44.88C6.43803 44.8867 6.28137 44.8967 6.14137 44.91V43.59ZM8.69137 46.3C8.57137 46.52 8.43137 46.76 8.27137 47.02C8.11137 47.28 7.93803 47.54 7.75137 47.8C7.57137 48.06 7.3947 48.3033 7.22137 48.53C7.04803 48.75 6.8947 48.9333 6.76137 49.08L5.67137 48.34C5.83803 48.1867 6.00803 48.0067 6.18137 47.8C6.36137 47.5867 6.5347 47.3633 6.70137 47.13C6.8747 46.8967 7.03137 46.6633 7.17137 46.43C7.31803 46.1967 7.4447 45.9733 7.55137 45.76L8.69137 46.3ZM12.9814 45.73C13.108 45.89 13.248 46.08 13.4014 46.3C13.5614 46.52 13.7214 46.7567 13.8814 47.01C14.0414 47.2567 14.1914 47.5 14.3314 47.74C14.4714 47.9733 14.5914 48.18 14.6914 48.36L13.5214 49C13.4147 48.7867 13.2914 48.5567 13.1514 48.31C13.018 48.0633 12.878 47.8167 12.7314 47.57C12.5847 47.3233 12.438 47.0933 12.2914 46.88C12.1447 46.66 12.0114 46.4733 11.8914 46.32L12.9814 45.73ZM16.0714 45.37C16.1914 45.3767 16.3447 45.3867 16.5314 45.4C16.718 45.4067 16.9114 45.4133 17.1114 45.42C17.318 45.4267 17.508 45.43 17.6814 45.43C17.848 45.43 18.0547 45.43 18.3014 45.43C18.548 45.43 18.8147 45.43 19.1014 45.43C19.3947 45.43 19.6947 45.43 20.0014 45.43C20.3147 45.43 20.6247 45.43 20.9314 45.43C21.238 45.43 21.528 45.43 21.8014 45.43C22.0747 45.43 22.318 45.43 22.5314 45.43C22.7514 45.43 22.9247 45.43 23.0514 45.43C23.2847 45.43 23.5047 45.4233 23.7114 45.41C23.918 45.39 24.088 45.3767 24.2214 45.37V46.94C24.108 46.9333 23.938 46.9233 23.7114 46.91C23.4847 46.8967 23.2647 46.89 23.0514 46.89C22.9247 46.89 22.7514 46.89 22.5314 46.89C22.3114 46.89 22.0647 46.89 21.7914 46.89C21.518 46.89 21.228 46.89 20.9214 46.89C20.6214 46.89 20.3147 46.89 20.0014 46.89C19.688 46.89 19.3847 46.89 19.0914 46.89C18.8047 46.89 18.538 46.89 18.2914 46.89C18.0514 46.89 17.848 46.89 17.6814 46.89C17.3947 46.89 17.1014 46.8967 16.8014 46.91C16.5014 46.9167 16.258 46.9267 16.0714 46.94V45.37ZM30.3986 42.46C30.332 42.6067 30.262 42.7733 30.1886 42.96C30.1153 43.14 30.042 43.3433 29.9686 43.57C29.9086 43.7567 29.832 43.9967 29.7386 44.29C29.6453 44.5767 29.542 44.8933 29.4286 45.24C29.3153 45.58 29.1953 45.9333 29.0686 46.3C28.9486 46.66 28.832 47.01 28.7186 47.35C28.6053 47.69 28.4986 48 28.3986 48.28C28.2986 48.5533 28.212 48.7767 28.1386 48.95L26.6586 49C26.752 48.7867 26.8553 48.5267 26.9686 48.22C27.082 47.9133 27.202 47.58 27.3286 47.22C27.4553 46.8533 27.5786 46.48 27.6986 46.1C27.8253 45.72 27.942 45.3533 28.0486 45C28.162 44.6467 28.262 44.32 28.3486 44.02C28.442 43.72 28.5153 43.4767 28.5686 43.29C28.6353 43.03 28.6853 42.8167 28.7186 42.65C28.7586 42.4767 28.7886 42.3033 28.8086 42.13L30.3986 42.46ZM32.1886 45.69C32.3686 45.9567 32.562 46.27 32.7686 46.63C32.9753 46.99 33.1786 47.3667 33.3786 47.76C33.5853 48.1467 33.7753 48.52 33.9486 48.88C34.122 49.24 34.2653 49.5633 34.3786 49.85L33.0286 50.45C32.9153 50.1433 32.7753 49.7967 32.6086 49.41C32.4486 49.0233 32.272 48.63 32.0786 48.23C31.892 47.83 31.6986 47.4533 31.4986 47.1C31.3053 46.74 31.1186 46.44 30.9386 46.2L32.1886 45.69ZM26.5686 48.56C26.7953 48.5467 27.0686 48.53 27.3886 48.51C27.7153 48.4833 28.0653 48.4533 28.4386 48.42C28.812 48.38 29.192 48.34 29.5786 48.3C29.972 48.26 30.3553 48.22 30.7286 48.18C31.1086 48.1333 31.462 48.09 31.7886 48.05C32.1153 48.01 32.392 47.9733 32.6186 47.94L32.9186 49.22C32.672 49.2533 32.3753 49.29 32.0286 49.33C31.6886 49.37 31.322 49.4133 30.9286 49.46C30.5353 49.5 30.1353 49.5433 29.7286 49.59C29.322 49.6367 28.9253 49.68 28.5386 49.72C28.152 49.76 27.7953 49.7967 27.4686 49.83C27.142 49.8567 26.8653 49.8833 26.6386 49.91C26.512 49.9233 26.362 49.9433 26.1886 49.97C26.022 49.99 25.8586 50.01 25.6986 50.03L25.4686 48.57C25.6353 48.57 25.8186 48.57 26.0186 48.57C26.2253 48.57 26.4086 48.5667 26.5686 48.56Z" fill="white"/>
</svg>
