<svg width="40" height="52" viewBox="0 0 40 52" fill="none" xmlns="http://www.w3.org/2000/svg">
<path d="M20.0002 4.5C20.3979 4.50004 20.7795 4.65828 21.0608 4.93945L35.054 18.9326C35.3272 19.2155 35.4792 19.595 35.4758 19.9883C35.4723 20.3815 35.3144 20.7581 35.0364 21.0361C34.7583 21.3142 34.3818 21.4712 33.9885 21.4746C33.6444 21.4776 33.3116 21.3623 33.0442 21.1504L32.9338 21.0537L31.5002 19.6201V34C31.5001 34.3977 31.342 34.7793 31.0608 35.0605C30.7795 35.3417 30.3979 35.5 30.0002 35.5H26.0002C25.6026 35.5 25.221 35.3417 24.9397 35.0605C24.6585 34.7793 24.5004 34.3977 24.5002 34V30C24.5002 29.337 24.2367 28.7003 23.7678 28.2314C23.299 27.7628 22.6631 27.5 22.0002 27.5H18.0002C17.3374 27.5 16.7015 27.7628 16.2327 28.2314C15.7638 28.7003 15.5002 29.337 15.5002 30V34C15.5001 34.3977 15.342 34.7793 15.0608 35.0605C14.7795 35.3417 14.3979 35.5 14.0002 35.5H10.0002C9.60256 35.5 9.22097 35.3417 8.9397 35.0605C8.65849 34.7793 8.50036 34.3977 8.50024 34V19.6201L7.06665 21.0537C6.78383 21.3269 6.40514 21.4779 6.01196 21.4746C5.61881 21.4712 5.24219 21.3141 4.96411 21.0361C4.68606 20.7581 4.52814 20.3815 4.52466 19.9883C4.52127 19.5979 4.67034 19.2217 4.9397 18.9395L18.9397 4.93945C19.221 4.65825 19.6025 4.5 20.0002 4.5Z" stroke="white"/>
<path d="M10.7714 42.16C10.7647 42.2067 10.7547 42.2733 10.7414 42.36C10.7347 42.44 10.728 42.5267 10.7214 42.62C10.7147 42.7133 10.7114 42.7967 10.7114 42.87C10.7114 43.0433 10.7114 43.2467 10.7114 43.48C10.7114 43.7067 10.7114 43.93 10.7114 44.15C10.7114 44.37 10.7114 44.5633 10.7114 44.73C10.7114 44.8633 10.7114 45.0567 10.7114 45.31C10.7114 45.5633 10.7114 45.85 10.7114 46.17C10.7114 46.4833 10.7114 46.81 10.7114 47.15C10.7114 47.49 10.7114 47.8167 10.7114 48.13C10.7114 48.4367 10.7114 48.7133 10.7114 48.96C10.7114 49.2 10.7114 49.38 10.7114 49.5C10.7114 49.76 10.6447 49.9567 10.5114 50.09C10.378 50.2233 10.158 50.29 9.85137 50.29C9.71137 50.29 9.5547 50.2867 9.38137 50.28C9.2147 50.2733 9.04803 50.2633 8.88137 50.25C8.7147 50.2433 8.5647 50.2333 8.43137 50.22L8.36137 49.43C8.58137 49.47 8.7947 49.5 9.00137 49.52C9.2147 49.5333 9.3847 49.54 9.51137 49.54C9.65137 49.54 9.75137 49.51 9.81137 49.45C9.87137 49.39 9.90137 49.2933 9.90137 49.16C9.90137 49.0667 9.90137 48.9067 9.90137 48.68C9.90137 48.4533 9.90137 48.1867 9.90137 47.88C9.90137 47.5733 9.90137 47.2533 9.90137 46.92C9.90137 46.5867 9.90137 46.27 9.90137 45.97C9.90137 45.6633 9.90137 45.4 9.90137 45.18C9.90137 44.96 9.90137 44.81 9.90137 44.73C9.90137 44.61 9.90137 44.4367 9.90137 44.21C9.90137 43.9833 9.90137 43.7467 9.90137 43.5C9.90137 43.2533 9.90137 43.0433 9.90137 42.87C9.90137 42.7633 9.8947 42.6367 9.88137 42.49C9.86803 42.3433 9.85137 42.2333 9.83137 42.16H10.7714ZM6.27137 43.84C6.41803 43.86 6.5547 43.8767 6.68137 43.89C6.8147 43.8967 6.96137 43.9 7.12137 43.9C7.20137 43.9 7.3647 43.9 7.61137 43.9C7.85803 43.9 8.1547 43.9 8.50137 43.9C8.8547 43.9 9.23137 43.9 9.63137 43.9C10.0314 43.9 10.4314 43.9 10.8314 43.9C11.238 43.9 11.6147 43.9 11.9614 43.9C12.3147 43.9 12.6114 43.9 12.8514 43.9C13.098 43.9 13.2647 43.9 13.3514 43.9C13.4714 43.9 13.6047 43.8967 13.7514 43.89C13.9047 43.8767 14.0447 43.8633 14.1714 43.85V44.68C14.038 44.6667 13.9014 44.66 13.7614 44.66C13.6214 44.6533 13.488 44.65 13.3614 44.65C13.2747 44.65 13.108 44.65 12.8614 44.65C12.6214 44.65 12.3247 44.65 11.9714 44.65C11.6247 44.65 11.2514 44.65 10.8514 44.65C10.4514 44.65 10.0514 44.65 9.65137 44.65C9.25137 44.65 8.8747 44.65 8.52137 44.65C8.1747 44.65 7.87803 44.65 7.63137 44.65C7.3847 44.65 7.21803 44.65 7.13137 44.65C6.97803 44.65 6.83137 44.6533 6.69137 44.66C6.55137 44.6667 6.41137 44.6767 6.27137 44.69V43.84ZM8.57137 46.2C8.4647 46.4133 8.33137 46.6467 8.17137 46.9C8.01803 47.1533 7.84803 47.4067 7.66137 47.66C7.48137 47.9133 7.30137 48.1533 7.12137 48.38C6.94803 48.6 6.79137 48.7867 6.65137 48.94L5.96137 48.47C6.12803 48.3167 6.30137 48.1333 6.48137 47.92C6.66803 47.7067 6.84803 47.48 7.02137 47.24C7.1947 47 7.3547 46.76 7.50137 46.52C7.64803 46.28 7.77137 46.06 7.87137 45.86L8.57137 46.2ZM12.7514 45.86C12.8847 46.02 13.028 46.2133 13.1814 46.44C13.3414 46.66 13.5014 46.8933 13.6614 47.14C13.828 47.3867 13.9814 47.6267 14.1214 47.86C14.2614 48.0933 14.3814 48.3 14.4814 48.48L13.7414 48.89C13.648 48.69 13.5314 48.47 13.3914 48.23C13.258 47.99 13.1147 47.7467 12.9614 47.5C12.808 47.2533 12.6514 47.02 12.4914 46.8C12.338 46.58 12.198 46.39 12.0714 46.23L12.7514 45.86ZM16.1714 45.67C16.2714 45.6767 16.3947 45.6867 16.5414 45.7C16.688 45.7067 16.848 45.7133 17.0214 45.72C17.2014 45.72 17.3814 45.72 17.5614 45.72C17.668 45.72 17.8314 45.72 18.0514 45.72C18.278 45.72 18.5414 45.72 18.8414 45.72C19.1414 45.72 19.458 45.72 19.7914 45.72C20.1314 45.72 20.468 45.72 20.8014 45.72C21.1414 45.72 21.4614 45.72 21.7614 45.72C22.068 45.72 22.3314 45.72 22.5514 45.72C22.7714 45.72 22.9347 45.72 23.0414 45.72C23.2947 45.72 23.5114 45.7133 23.6914 45.7C23.8714 45.6867 24.0147 45.6767 24.1214 45.67V46.65C24.0214 46.6433 23.8714 46.6333 23.6714 46.62C23.478 46.6067 23.2714 46.6 23.0514 46.6C22.9447 46.6 22.778 46.6 22.5514 46.6C22.3247 46.6 22.0614 46.6 21.7614 46.6C21.468 46.6 21.1514 46.6 20.8114 46.6C20.4714 46.6 20.1314 46.6 19.7914 46.6C19.458 46.6 19.1414 46.6 18.8414 46.6C18.548 46.6 18.288 46.6 18.0614 46.6C17.8347 46.6 17.668 46.6 17.5614 46.6C17.288 46.6 17.028 46.6067 16.7814 46.62C16.5347 46.6267 16.3314 46.6367 16.1714 46.65V45.67ZM30.0686 42.54C30.022 42.6667 29.9686 42.8 29.9086 42.94C29.8553 43.08 29.7953 43.2567 29.7286 43.47C29.6686 43.6367 29.592 43.87 29.4986 44.17C29.4053 44.47 29.2986 44.8033 29.1786 45.17C29.0653 45.53 28.942 45.9033 28.8086 46.29C28.682 46.6767 28.5553 47.0533 28.4286 47.42C28.302 47.7867 28.1853 48.1167 28.0786 48.41C27.9786 48.6967 27.892 48.9267 27.8186 49.1L26.9086 49.13C26.9953 48.93 27.0953 48.6767 27.2086 48.37C27.322 48.0633 27.4453 47.72 27.5786 47.34C27.712 46.96 27.842 46.5733 27.9686 46.18C28.102 45.78 28.2286 45.3933 28.3486 45.02C28.4686 44.6467 28.572 44.31 28.6586 44.01C28.752 43.71 28.8253 43.4733 28.8786 43.3C28.9386 43.0667 28.982 42.8833 29.0086 42.75C29.0353 42.61 29.0553 42.4733 29.0686 42.34L30.0686 42.54ZM31.9686 45.89C32.1486 46.15 32.342 46.4567 32.5486 46.81C32.762 47.1633 32.972 47.5367 33.1786 47.93C33.392 48.3167 33.5853 48.6867 33.7586 49.04C33.9386 49.3933 34.082 49.7 34.1886 49.96L33.3486 50.34C33.2486 50.0667 33.1153 49.7467 32.9486 49.38C32.782 49.0067 32.5986 48.6233 32.3986 48.23C32.2053 47.8367 32.0053 47.4633 31.7986 47.11C31.592 46.7567 31.3986 46.4633 31.2186 46.23L31.9686 45.89ZM26.5186 48.89C26.7586 48.8767 27.0486 48.8567 27.3886 48.83C27.7353 48.7967 28.1086 48.7633 28.5086 48.73C28.9086 48.69 29.3153 48.6467 29.7286 48.6C30.1486 48.5533 30.5553 48.51 30.9486 48.47C31.342 48.4233 31.702 48.38 32.0286 48.34C32.3553 48.2933 32.6253 48.2567 32.8386 48.23L33.0586 49C32.832 49.0333 32.5453 49.07 32.1986 49.11C31.852 49.15 31.4753 49.1933 31.0686 49.24C30.6686 49.28 30.252 49.3267 29.8186 49.38C29.392 49.4267 28.9753 49.4733 28.5686 49.52C28.162 49.5667 27.7853 49.6067 27.4386 49.64C27.092 49.6733 26.802 49.7 26.5686 49.72C26.442 49.7333 26.3086 49.75 26.1686 49.77C26.0286 49.79 25.8853 49.81 25.7386 49.83L25.5886 48.9C25.742 48.9067 25.8986 48.91 26.0586 48.91C26.2253 48.9033 26.3786 48.8967 26.5186 48.89Z" fill="white"/>
</svg>
