<svg width="246" height="246" viewBox="0 0 246 246" fill="none" xmlns="http://www.w3.org/2000/svg">
<circle cx="123" cy="123" r="81" fill="#3E4A59"/>
<mask id="mask0_684_1234" style="mask-type:alpha" maskUnits="userSpaceOnUse" x="56" y="56" width="135" height="135">
<rect x="56.5801" y="56.5801" width="133.66" height="133.66" fill="#D9D9D9"/>
</mask>
<g mask="url(#mask0_684_1234)">
<path d="M123.41 128.787C120.128 128.787 117.452 127.69 115.383 125.496C113.313 123.301 112.278 120.567 112.278 117.296V73.6649C112.278 70.5922 113.339 67.9689 115.462 65.7952C117.585 63.6202 120.231 62.5327 123.4 62.5327C126.569 62.5327 129.219 63.6202 131.348 65.7952C133.478 67.9689 134.543 70.5922 134.543 73.6649V117.296C134.543 120.567 133.508 123.301 131.438 125.496C129.369 127.69 126.693 128.787 123.41 128.787ZM123.41 184.987C122.32 184.987 121.435 184.103 121.435 183.012V162.735C121.435 160.102 119.384 157.952 116.786 157.516C107.895 156.024 100.228 151.954 93.7844 145.306C86.7029 138 82.9464 129.321 82.5147 119.271C82.4679 118.181 83.3569 117.296 84.4477 117.296V117.296C85.5385 117.296 86.4176 118.181 86.4678 119.271C86.9028 128.708 90.4878 136.758 97.2228 143.421C104.424 150.543 113.132 154.104 123.348 154.104C133.564 154.104 142.293 150.543 149.535 143.421C156.309 136.758 159.915 128.708 160.353 119.271C160.403 118.181 161.282 117.296 162.373 117.296V117.296C163.464 117.296 164.353 118.181 164.306 119.271C163.874 129.321 160.118 138 153.036 145.306C146.593 151.954 138.925 156.024 130.034 157.516C127.437 157.952 125.385 160.102 125.385 162.735V183.012C125.385 184.103 124.501 184.987 123.41 184.987V184.987ZM123.41 124.837C125.445 124.837 127.151 124.119 128.528 122.682C129.904 121.246 130.592 119.427 130.592 117.224V73.6649C130.592 71.63 129.904 69.9243 128.528 68.5477C127.151 67.1711 125.445 66.4828 123.41 66.4828C121.375 66.4828 119.67 67.1711 118.293 68.5477C116.917 69.9243 116.228 71.63 116.228 73.6649V117.296C116.228 119.451 116.917 121.246 118.293 122.682C119.67 124.119 121.375 124.837 123.41 124.837Z" fill="white"/>
</g>
</svg>
