<svg width="246" height="246" viewBox="0 0 246 246" fill="none" xmlns="http://www.w3.org/2000/svg">
<circle cx="123" cy="123" r="123" fill="#82D9BC" fill-opacity="0.2"/>
<ellipse cx="123.5" cy="123" rx="105.5" ry="106" fill="#82D9BC" fill-opacity="0.2"/>
<circle cx="123" cy="123" r="81" fill="#82D9BC" fill-opacity="0.2"/>
<mask id="mask0_684_1236" style="mask-type:alpha" maskUnits="userSpaceOnUse" x="56" y="56" width="135" height="135">
<rect x="56.5801" y="56.5801" width="133.66" height="133.66" fill="#D9D9D9"/>
</mask>
<g mask="url(#mask0_684_1236)">
<path d="M123.41 128.816C120.128 128.816 117.452 127.713 115.383 125.506C113.313 123.298 112.278 120.549 112.278 117.259V73.3749C112.278 70.2844 113.339 67.6459 115.462 65.4596C117.585 63.272 120.231 62.1782 123.4 62.1782C126.569 62.1782 129.219 63.272 131.348 65.4596C133.478 67.6459 134.543 70.2844 134.543 73.3749V117.259C134.543 120.549 133.508 123.298 131.438 125.506C129.369 127.713 126.693 128.816 123.41 128.816ZM123.41 185.341C122.32 185.341 121.435 184.457 121.435 183.366V162.932C121.435 160.299 119.385 158.15 116.788 157.712C107.897 156.212 100.229 152.118 93.7844 145.431C86.7003 138.079 82.9436 129.347 82.5142 119.233C82.4679 118.143 83.3569 117.259 84.4477 117.259C85.5385 117.259 86.4177 118.143 86.4673 119.233C86.8999 128.731 90.4851 136.831 97.2228 143.535C104.424 150.698 113.132 154.28 123.348 154.28C133.564 154.28 142.293 150.698 149.535 143.535C156.312 136.831 159.918 128.731 160.353 119.233C160.403 118.143 161.282 117.259 162.373 117.259C163.464 117.259 164.353 118.143 164.307 119.233C163.877 129.347 160.121 138.079 153.036 145.431C146.592 152.118 138.924 156.212 130.032 157.712C127.436 158.15 125.385 160.299 125.385 162.932V183.366C125.385 184.457 124.501 185.341 123.41 185.341ZM123.41 124.843C125.445 124.843 127.151 124.121 128.528 122.676C129.904 121.232 130.592 119.402 130.592 117.186V73.3749C130.592 71.3282 129.904 69.6126 128.528 68.228C127.151 66.8435 125.445 66.1512 123.41 66.1512C121.375 66.1512 119.67 66.8435 118.293 68.228C116.917 69.6126 116.228 71.3282 116.228 73.3749V117.259C116.228 119.426 116.917 121.232 118.293 122.676C119.67 124.121 121.375 124.843 123.41 124.843Z" fill="#FF9673"/>
</g>
</svg>
