<svg width="162" height="162" viewBox="0 0 162 162" fill="none" xmlns="http://www.w3.org/2000/svg">
<circle cx="81" cy="81" r="81" fill="#3E4A59"/>
<mask id="mask0_684_1234" style="mask-type:alpha" maskUnits="userSpaceOnUse" x="14" y="14" width="135" height="135">
<rect x="14.5801" y="14.5801" width="133.66" height="133.66" fill="#D9D9D9"/>
</mask>
<g mask="url(#mask0_684_1234)">
<path d="M81.4104 86.8163C78.1282 86.8163 75.4523 85.7129 73.3827 83.5061C71.313 81.2981 70.2782 78.5489 70.2782 75.2585V31.3749C70.2782 28.2844 71.3394 25.6459 73.4617 23.4596C75.5852 21.272 78.2311 20.1782 81.3996 20.1782C84.5693 20.1782 87.2189 21.272 89.3484 23.4596C91.4779 25.6459 92.5426 28.2844 92.5426 31.3749V75.2585C92.5426 78.5489 91.5078 81.2981 89.4382 83.5061C87.3685 85.7129 84.6926 86.8163 81.4104 86.8163ZM81.4104 143.341C80.3196 143.341 79.4353 142.457 79.4353 141.366V120.932C79.4353 118.299 77.3848 116.15 74.7885 115.712C65.8967 114.212 58.2287 110.118 51.7844 103.431C44.7003 96.0794 40.9436 87.3469 40.5142 77.2333C40.4679 76.1435 41.3569 75.2585 42.4477 75.2585C43.5385 75.2585 44.4177 76.1435 44.4673 77.2332C44.8999 86.7306 48.4851 94.831 55.2228 101.535C62.424 108.698 71.1323 112.28 81.3476 112.28C91.564 112.28 100.293 108.698 107.535 101.535C114.312 94.831 117.918 86.7306 118.353 77.2332C118.403 76.1435 119.282 75.2585 120.373 75.2585C121.464 75.2585 122.353 76.1435 122.307 77.2333C121.877 87.3469 118.121 96.0794 111.036 103.431C104.592 110.118 96.9241 114.212 88.0323 115.712C85.436 116.15 83.3855 118.299 83.3855 120.932V141.366C83.3855 142.457 82.5012 143.341 81.4104 143.341ZM81.4104 82.8433C83.4453 82.8433 85.1511 82.121 86.5276 80.6763C87.9042 79.2315 88.5925 77.4015 88.5925 75.1863V31.3749C88.5925 29.3282 87.9042 27.6126 86.5276 26.228C85.1511 24.8435 83.4453 24.1512 81.4104 24.1512C79.3755 24.1512 77.6697 24.8435 76.2932 26.228C74.9166 27.6126 74.2283 29.3282 74.2283 31.3749V75.2585C74.2283 77.4256 74.9166 79.2315 76.2932 80.6763C77.6697 82.121 79.3755 82.8433 81.4104 82.8433Z" fill="white"/>
</g>
</svg>
