<svg width="88" height="87" viewBox="0 0 88 87" fill="none" xmlns="http://www.w3.org/2000/svg">
<mask id="mask0_396_724" style="mask-type:alpha" maskUnits="userSpaceOnUse" x="0" y="0" width="88" height="87">
<rect x="0.5" width="87" height="87" fill="#D9D9D9"/>
</mask>
<g mask="url(#mask0_396_724)">
<path d="M34.9375 59.8125L60.3125 43.5L34.9375 27.1875V59.8125ZM44 79.75C38.9854 79.75 34.2729 78.7984 29.8625 76.8953C25.4521 74.9922 21.6156 72.4094 18.3531 69.1469C15.0906 65.8844 12.5078 62.0479 10.6047 57.6375C8.70156 53.2271 7.75 48.5146 7.75 43.5C7.75 38.4854 8.70156 33.7729 10.6047 29.3625C12.5078 24.9521 15.0906 21.1156 18.3531 17.8531C21.6156 14.5906 25.4521 12.0078 29.8625 10.1047C34.2729 8.20156 38.9854 7.25 44 7.25C49.0146 7.25 53.7271 8.20156 58.1375 10.1047C62.5479 12.0078 66.3844 14.5906 69.6469 17.8531C72.9094 21.1156 75.4922 24.9521 77.3953 29.3625C79.2984 33.7729 80.25 38.4854 80.25 43.5C80.25 48.5146 79.2984 53.2271 77.3953 57.6375C75.4922 62.0479 72.9094 65.8844 69.6469 69.1469C66.3844 72.4094 62.5479 74.9922 58.1375 76.8953C53.7271 78.7984 49.0146 79.75 44 79.75ZM44 72.5C52.0958 72.5 58.9531 69.6906 64.5719 64.0719C70.1906 58.4531 73 51.5958 73 43.5C73 35.4042 70.1906 28.5469 64.5719 22.9281C58.9531 17.3094 52.0958 14.5 44 14.5C35.9042 14.5 29.0469 17.3094 23.4281 22.9281C17.8094 28.5469 15 35.4042 15 43.5C15 51.5958 17.8094 58.4531 23.4281 64.0719C29.0469 69.6906 35.9042 72.5 44 72.5Z" fill="#1C1B1F"/>
</g>
</svg>
