<svg width="83" height="40" viewBox="0 0 83 40" fill="none" xmlns="http://www.w3.org/2000/svg">
<path d="M2.1842 4.99999C2.18421 2.23857 4.42278 0 7.1842 0H75.1841C77.9455 0 80.1841 2.23858 80.1841 5V35C80.1841 37.7614 77.9455 40 75.1841 40H7.1841C4.42267 40 2.18409 37.7614 2.1841 35L2.1842 4.99999Z" fill="#3BBC54"/>
<path d="M22.5389 18.06H24.0389V29.6H22.5389V18.06ZM16.6989 21H29.6589V22.38H16.6989V21ZM24.4789 21.56C24.8789 22.36 25.3856 23.1467 25.9989 23.92C26.6123 24.68 27.2856 25.38 28.0189 26.02C28.7523 26.6467 29.4789 27.16 30.1989 27.56C30.0923 27.6533 29.9656 27.7733 29.8189 27.92C29.6856 28.0533 29.5589 28.1933 29.4389 28.34C29.3189 28.4867 29.2189 28.6267 29.1389 28.76C28.4056 28.28 27.6723 27.68 26.9389 26.96C26.2189 26.24 25.5456 25.4533 24.9189 24.6C24.2923 23.7467 23.7589 22.88 23.3189 22L24.4789 21.56ZM22.1989 21.44L23.3789 21.88C22.9256 22.8 22.3656 23.7 21.6989 24.58C21.0323 25.4467 20.3056 26.24 19.5189 26.96C18.7456 27.6667 17.9589 28.2533 17.1589 28.72C17.0789 28.5867 16.9789 28.4467 16.8589 28.3C16.7389 28.1667 16.6123 28.0333 16.4789 27.9C16.3589 27.7533 16.2389 27.6333 16.1189 27.54C16.9056 27.14 17.6856 26.62 18.4589 25.98C19.2323 25.34 19.9389 24.6267 20.5789 23.84C21.2323 23.0533 21.7723 22.2533 22.1989 21.44ZM19.6189 13.48V17.16H27.0589V13.48H19.6189ZM18.1789 12.14H28.5589V18.52H18.1789V12.14ZM16.1189 11.26L17.5189 11.7C17.0789 12.82 16.5589 13.9267 15.9589 15.02C15.3589 16.1133 14.7123 17.14 14.0189 18.1C13.3256 19.06 12.6123 19.9133 11.8789 20.66C11.8389 20.54 11.7656 20.3867 11.6589 20.2C11.5656 20.0133 11.4589 19.8267 11.3389 19.64C11.2323 19.4533 11.1323 19.3 11.0389 19.18C11.7056 18.54 12.3523 17.8 12.9789 16.96C13.6056 16.1067 14.1856 15.2 14.7189 14.24C15.2656 13.2667 15.7323 12.2733 16.1189 11.26ZM14.0389 16.42L15.4389 15L15.4789 15.02V29.54H14.0389V16.42ZM37.2789 22.68H49.7189V24.08H37.2789V22.68ZM38.9789 17.5H47.2189V18.88H38.9789V17.5ZM42.8789 20.82H44.3989V27.82C44.3989 28.26 44.3389 28.5933 44.2189 28.82C44.0989 29.06 43.8723 29.24 43.5389 29.36C43.2056 29.48 42.7523 29.5467 42.1789 29.56C41.6189 29.5867 40.9056 29.6 40.0389 29.6C39.9989 29.3867 39.9389 29.1467 39.8589 28.88C39.7789 28.6133 39.6789 28.3733 39.5589 28.16C40.0123 28.1733 40.4323 28.18 40.8189 28.18C41.2189 28.1933 41.5589 28.1933 41.8389 28.18C42.1323 28.18 42.3389 28.18 42.4589 28.18C42.6323 28.1667 42.7456 28.1333 42.7989 28.08C42.8523 28.0267 42.8789 27.9333 42.8789 27.8V20.82ZM46.8189 17.5H47.1989L47.4989 17.42L48.4589 18.16C48.0723 18.6133 47.6256 19.0733 47.1189 19.54C46.6256 19.9933 46.1056 20.4267 45.5589 20.84C45.0256 21.24 44.5056 21.6 43.9989 21.92C43.8923 21.7733 43.7523 21.6133 43.5789 21.44C43.4189 21.2667 43.2789 21.1267 43.1589 21.02C43.6123 20.7667 44.0656 20.4533 44.5189 20.08C44.9856 19.6933 45.4256 19.3 45.8389 18.9C46.2523 18.5 46.5789 18.1333 46.8189 17.8V17.5ZM31.8389 13.82H49.3589V15.26H31.8389V13.82ZM38.2789 11.2L39.8589 11.58C39.3923 13.1133 38.7989 14.6333 38.0789 16.14C37.3723 17.6333 36.5189 19.0333 35.5189 20.34C34.5189 21.6333 33.3523 22.76 32.0189 23.72C31.9656 23.5867 31.8923 23.4333 31.7989 23.26C31.7056 23.0867 31.6056 22.9133 31.4989 22.74C31.3923 22.5667 31.2989 22.4267 31.2189 22.32C32.1256 21.68 32.9456 20.94 33.6789 20.1C34.4256 19.2467 35.0923 18.3333 35.6789 17.36C36.2789 16.3733 36.7923 15.36 37.2189 14.32C37.6456 13.2667 37.9989 12.2267 38.2789 11.2ZM34.3389 19.36H35.8589V29.56H34.3389V19.36ZM52.4989 14.78H68.619V24.18H67.0789V16.24H53.9989V24.28H52.4989V14.78ZM53.2989 21.56H67.979V23.04H53.2989V21.56ZM59.7389 11.2H61.3189V29.58H59.7389V11.2Z" fill="white"/>
</svg>
