<svg width="40" height="63" viewBox="0 0 40 63" fill="none" xmlns="http://www.w3.org/2000/svg">
<g clip-path="url(#clip0_271_337)">
<path d="M16.667 7.16699C20.0726 7.16717 22.833 9.92834 22.833 13.334C22.8328 16.7395 20.0725 19.4998 16.667 19.5C13.2613 19.5 10.5002 16.7396 10.5 13.334C10.5 9.92823 13.2612 7.16699 16.667 7.16699Z" stroke="white"/>
<path d="M16.5637 23.8447C16.1393 25.3676 15.4887 29.186 18.1848 32.834H3.83325V30C3.83338 29.0516 4.31757 28.1818 5.20142 27.3906C6.08814 26.5969 7.33962 25.9195 8.76392 25.374C11.3406 24.3872 14.3762 23.8748 16.5637 23.8447Z" stroke="white"/>
<path d="M26.667 20.5C30.074 20.5002 32.833 23.2599 32.833 26.667C32.8329 27.8039 32.5104 28.8639 31.9561 29.7725L31.752 30.1084L32.0293 30.3867L35.959 34.3164L34.3164 35.959L30.1123 31.7549L29.7783 31.9531C28.8625 32.4964 27.7997 32.8329 26.667 32.833C23.2599 32.833 20.5002 30.074 20.5 26.667C20.5 23.2598 23.2598 20.5 26.667 20.5ZM26.667 22.833C24.5575 22.833 22.833 24.5575 22.833 26.667C22.8332 28.7763 24.5576 30.5 26.667 30.5C28.7762 30.4998 30.4998 28.7762 30.5 26.667C30.5 24.5576 28.7763 22.8332 26.667 22.833Z" stroke="white"/>
</g>
<path d="M13.58 47.76H19.49V48.44H13.58V47.76ZM16.94 44.12H17.62V45.89C17.62 45.99 17.6367 46.0567 17.67 46.09C17.7033 46.1167 17.7833 46.13 17.91 46.13C17.9433 46.13 18.0167 46.13 18.13 46.13C18.2433 46.13 18.3567 46.13 18.47 46.13C18.59 46.13 18.6733 46.13 18.72 46.13C18.8 46.13 18.8567 46.1133 18.89 46.08C18.93 46.04 18.9567 45.9567 18.97 45.83C18.9833 45.7033 18.9933 45.51 19 45.25C19.0733 45.3033 19.17 45.3567 19.29 45.41C19.41 45.4567 19.52 45.49 19.62 45.51C19.6 45.8367 19.56 46.09 19.5 46.27C19.44 46.45 19.3533 46.5767 19.24 46.65C19.1333 46.7167 18.99 46.75 18.81 46.75C18.7767 46.75 18.71 46.75 18.61 46.75C18.5167 46.75 18.4167 46.75 18.31 46.75C18.2033 46.75 18.1033 46.75 18.01 46.75C17.9167 46.75 17.8533 46.75 17.82 46.75C17.58 46.75 17.3967 46.7267 17.27 46.68C17.1433 46.6267 17.0567 46.5367 17.01 46.41C16.9633 46.2833 16.94 46.11 16.94 45.89V44.12ZM13.74 43.15H19.41V44.92H18.74V43.81H14.4V44.95H13.74V43.15ZM16.13 46.67H16.87V51.8H16.13V46.67ZM15.34 44.13H16.03C16.01 44.5233 15.9633 44.87 15.89 45.17C15.8167 45.47 15.7033 45.7367 15.55 45.97C15.3967 46.1967 15.1867 46.3933 14.92 46.56C14.6533 46.72 14.3133 46.86 13.9 46.98C13.8667 46.9 13.81 46.8067 13.73 46.7C13.6567 46.5933 13.5833 46.5067 13.51 46.44C13.8767 46.3533 14.1733 46.2433 14.4 46.11C14.6333 45.9767 14.8133 45.82 14.94 45.64C15.0733 45.4533 15.1667 45.2367 15.22 44.99C15.28 44.7433 15.32 44.4567 15.34 44.13ZM17.14 48.07C17.32 48.43 17.55 48.7833 17.83 49.13C18.1167 49.47 18.4267 49.78 18.76 50.06C19.0933 50.34 19.43 50.5633 19.77 50.73C19.7233 50.7767 19.6667 50.8333 19.6 50.9C19.5333 50.9667 19.47 51.0367 19.41 51.11C19.35 51.1833 19.3 51.2533 19.26 51.32C18.9067 51.1133 18.56 50.8533 18.22 50.54C17.88 50.22 17.5667 49.8667 17.28 49.48C16.9933 49.0933 16.7533 48.6967 16.56 48.29L17.14 48.07ZM15.88 48.01L16.48 48.21C16.2733 48.6633 16.0167 49.0933 15.71 49.5C15.41 49.9067 15.0733 50.27 14.7 50.59C14.3267 50.9033 13.9333 51.1633 13.52 51.37C13.4667 51.2833 13.3933 51.18 13.3 51.06C13.2067 50.9467 13.12 50.8567 13.04 50.79C13.4333 50.6167 13.8133 50.39 14.18 50.11C14.5467 49.8233 14.8767 49.5 15.17 49.14C15.4633 48.78 15.7 48.4033 15.88 48.01ZM10.28 47.79C10.6667 47.6767 11.1333 47.5367 11.68 47.37C12.2333 47.1967 12.7933 47.02 13.36 46.84L13.47 47.53C12.95 47.7033 12.4267 47.8767 11.9 48.05C11.3733 48.2233 10.8967 48.3767 10.47 48.51L10.28 47.79ZM10.42 44.62H13.45V45.32H10.42V44.62ZM11.67 42.61H12.37V50.93C12.37 51.13 12.3433 51.2867 12.29 51.4C12.2433 51.5133 12.1567 51.6 12.03 51.66C11.91 51.72 11.75 51.76 11.55 51.78C11.35 51.8 11.09 51.8067 10.77 51.8C10.7633 51.7133 10.7367 51.6 10.69 51.46C10.65 51.3267 10.6067 51.2067 10.56 51.1C10.7733 51.1067 10.9667 51.11 11.14 51.11C11.32 51.1167 11.44 51.1167 11.5 51.11C11.56 51.11 11.6033 51.0967 11.63 51.07C11.6567 51.05 11.67 51.0033 11.67 50.93V42.61ZM26.27 43.08C26.27 43.1133 26.2633 43.1733 26.25 43.26C26.2433 43.3467 26.2367 43.4333 26.23 43.52C26.23 43.6 26.2267 43.6633 26.22 43.71C26.2133 43.8367 26.21 44.01 26.21 44.23C26.21 44.45 26.21 44.69 26.21 44.95C26.21 45.21 26.21 45.4733 26.21 45.74C26.2167 46.0067 26.22 46.2567 26.22 46.49C26.2267 46.7233 26.23 46.92 26.23 47.08L25.46 46.7C25.46 46.6067 25.46 46.4667 25.46 46.28C25.46 46.0867 25.46 45.8667 25.46 45.62C25.46 45.3667 25.4567 45.1167 25.45 44.87C25.45 44.6233 25.4467 44.3967 25.44 44.19C25.4333 43.9833 25.4267 43.8233 25.42 43.71C25.4133 43.5767 25.4033 43.45 25.39 43.33C25.3767 43.2033 25.3667 43.12 25.36 43.08H26.27ZM20.96 44.47C21.2333 44.47 21.5433 44.4667 21.89 44.46C22.2367 44.4467 22.6033 44.4333 22.99 44.42C23.3833 44.4067 23.78 44.3967 24.18 44.39C24.58 44.3833 24.9633 44.3767 25.33 44.37C25.7033 44.3633 26.0467 44.36 26.36 44.36C26.66 44.36 26.96 44.36 27.26 44.36C27.56 44.36 27.84 44.36 28.1 44.36C28.3667 44.36 28.6 44.3633 28.8 44.37C29.0067 44.37 29.17 44.37 29.29 44.37L29.28 45.11C29 45.0967 28.6233 45.0867 28.15 45.08C27.6833 45.0667 27.0833 45.06 26.35 45.06C25.9167 45.06 25.4633 45.0667 24.99 45.08C24.5233 45.0867 24.0533 45.0967 23.58 45.11C23.1067 45.1233 22.6467 45.1433 22.2 45.17C21.76 45.19 21.3533 45.2133 20.98 45.24L20.96 44.47ZM26.21 47.38C26.21 47.82 26.1433 48.19 26.01 48.49C25.8833 48.79 25.7033 49.0133 25.47 49.16C25.2433 49.3067 24.9767 49.38 24.67 49.38C24.4633 49.38 24.26 49.3467 24.06 49.28C23.8667 49.2067 23.69 49.1 23.53 48.96C23.3767 48.8133 23.2533 48.6367 23.16 48.43C23.0733 48.2167 23.03 47.9767 23.03 47.71C23.03 47.3767 23.11 47.08 23.27 46.82C23.43 46.56 23.6433 46.3533 23.91 46.2C24.1833 46.0467 24.4767 45.97 24.79 45.97C25.1833 45.97 25.5067 46.06 25.76 46.24C26.02 46.4133 26.2167 46.6533 26.35 46.96C26.4833 47.26 26.55 47.6033 26.55 47.99C26.55 48.3233 26.5 48.6633 26.4 49.01C26.3067 49.3567 26.1467 49.69 25.92 50.01C25.7 50.33 25.3967 50.6233 25.01 50.89C24.63 51.15 24.1467 51.3667 23.56 51.54L22.89 50.88C23.3433 50.7733 23.75 50.6367 24.11 50.47C24.47 50.3033 24.7733 50.1 25.02 49.86C25.2667 49.62 25.4533 49.34 25.58 49.02C25.7133 48.7 25.78 48.3333 25.78 47.92C25.78 47.4667 25.6833 47.14 25.49 46.94C25.2967 46.74 25.0633 46.64 24.79 46.64C24.6167 46.64 24.4533 46.6833 24.3 46.77C24.1467 46.85 24.02 46.97 23.92 47.13C23.8267 47.29 23.78 47.48 23.78 47.7C23.78 48.0133 23.88 48.2567 24.08 48.43C24.2867 48.6033 24.5267 48.69 24.8 48.69C25.0067 48.69 25.1833 48.6333 25.33 48.52C25.4767 48.4 25.58 48.2233 25.64 47.99C25.7067 47.75 25.7133 47.4533 25.66 47.1L26.21 47.38Z" fill="white"/>
<defs>
<clipPath id="clip0_271_337">
<rect width="40" height="40" fill="white"/>
</clipPath>
</defs>
</svg>
