<svg width="40" height="50" viewBox="0 0 40 50" fill="none" xmlns="http://www.w3.org/2000/svg">
<path d="M12.58 44.76H18.49V45.44H12.58V44.76ZM15.94 41.12H16.62V42.89C16.62 42.99 16.6367 43.0567 16.67 43.09C16.7033 43.1167 16.7833 43.13 16.91 43.13C16.9433 43.13 17.0167 43.13 17.13 43.13C17.2433 43.13 17.3567 43.13 17.47 43.13C17.59 43.13 17.6733 43.13 17.72 43.13C17.8 43.13 17.8567 43.1133 17.89 43.08C17.93 43.04 17.9567 42.9567 17.97 42.83C17.9833 42.7033 17.9933 42.51 18 42.25C18.0733 42.3033 18.17 42.3567 18.29 42.41C18.41 42.4567 18.52 42.49 18.62 42.51C18.6 42.8367 18.56 43.09 18.5 43.27C18.44 43.45 18.3533 43.5767 18.24 43.65C18.1333 43.7167 17.99 43.75 17.81 43.75C17.7767 43.75 17.71 43.75 17.61 43.75C17.5167 43.75 17.4167 43.75 17.31 43.75C17.2033 43.75 17.1033 43.75 17.01 43.75C16.9167 43.75 16.8533 43.75 16.82 43.75C16.58 43.75 16.3967 43.7267 16.27 43.68C16.1433 43.6267 16.0567 43.5367 16.01 43.41C15.9633 43.2833 15.94 43.11 15.94 42.89V41.12ZM12.74 40.15H18.41V41.92H17.74V40.81H13.4V41.95H12.74V40.15ZM15.13 43.67H15.87V48.8H15.13V43.67ZM14.34 41.13H15.03C15.01 41.5233 14.9633 41.87 14.89 42.17C14.8167 42.47 14.7033 42.7367 14.55 42.97C14.3967 43.1967 14.1867 43.3933 13.92 43.56C13.6533 43.72 13.3133 43.86 12.9 43.98C12.8667 43.9 12.81 43.8067 12.73 43.7C12.6567 43.5933 12.5833 43.5067 12.51 43.44C12.8767 43.3533 13.1733 43.2433 13.4 43.11C13.6333 42.9767 13.8133 42.82 13.94 42.64C14.0733 42.4533 14.1667 42.2367 14.22 41.99C14.28 41.7433 14.32 41.4567 14.34 41.13ZM16.14 45.07C16.32 45.43 16.55 45.7833 16.83 46.13C17.1167 46.47 17.4267 46.78 17.76 47.06C18.0933 47.34 18.43 47.5633 18.77 47.73C18.7233 47.7767 18.6667 47.8333 18.6 47.9C18.5333 47.9667 18.47 48.0367 18.41 48.11C18.35 48.1833 18.3 48.2533 18.26 48.32C17.9067 48.1133 17.56 47.8533 17.22 47.54C16.88 47.22 16.5667 46.8667 16.28 46.48C15.9933 46.0933 15.7533 45.6967 15.56 45.29L16.14 45.07ZM14.88 45.01L15.48 45.21C15.2733 45.6633 15.0167 46.0933 14.71 46.5C14.41 46.9067 14.0733 47.27 13.7 47.59C13.3267 47.9033 12.9333 48.1633 12.52 48.37C12.4667 48.2833 12.3933 48.18 12.3 48.06C12.2067 47.9467 12.12 47.8567 12.04 47.79C12.4333 47.6167 12.8133 47.39 13.18 47.11C13.5467 46.8233 13.8767 46.5 14.17 46.14C14.4633 45.78 14.7 45.4033 14.88 45.01ZM9.28 44.79C9.66667 44.6767 10.1333 44.5367 10.68 44.37C11.2333 44.1967 11.7933 44.02 12.36 43.84L12.47 44.53C11.95 44.7033 11.4267 44.8767 10.9 45.05C10.3733 45.2233 9.89667 45.3767 9.47 45.51L9.28 44.79ZM9.42 41.62H12.45V42.32H9.42V41.62ZM10.67 39.61H11.37V47.93C11.37 48.13 11.3433 48.2867 11.29 48.4C11.2433 48.5133 11.1567 48.6 11.03 48.66C10.91 48.72 10.75 48.76 10.55 48.78C10.35 48.8 10.09 48.8067 9.77 48.8C9.76333 48.7133 9.73667 48.6 9.69 48.46C9.65 48.3267 9.60667 48.2067 9.56 48.1C9.77333 48.1067 9.96667 48.11 10.14 48.11C10.32 48.1167 10.44 48.1167 10.5 48.11C10.56 48.11 10.6033 48.0967 10.63 48.07C10.6567 48.05 10.67 48.0033 10.67 47.93V39.61ZM25.27 40.08C25.27 40.1133 25.2633 40.1733 25.25 40.26C25.2433 40.3467 25.2367 40.4333 25.23 40.52C25.23 40.6 25.2267 40.6633 25.22 40.71C25.2133 40.8367 25.21 41.01 25.21 41.23C25.21 41.45 25.21 41.69 25.21 41.95C25.21 42.21 25.21 42.4733 25.21 42.74C25.2167 43.0067 25.22 43.2567 25.22 43.49C25.2267 43.7233 25.23 43.92 25.23 44.08L24.46 43.7C24.46 43.6067 24.46 43.4667 24.46 43.28C24.46 43.0867 24.46 42.8667 24.46 42.62C24.46 42.3667 24.4567 42.1167 24.45 41.87C24.45 41.6233 24.4467 41.3967 24.44 41.19C24.4333 40.9833 24.4267 40.8233 24.42 40.71C24.4133 40.5767 24.4033 40.45 24.39 40.33C24.3767 40.2033 24.3667 40.12 24.36 40.08H25.27ZM19.96 41.47C20.2333 41.47 20.5433 41.4667 20.89 41.46C21.2367 41.4467 21.6033 41.4333 21.99 41.42C22.3833 41.4067 22.78 41.3967 23.18 41.39C23.58 41.3833 23.9633 41.3767 24.33 41.37C24.7033 41.3633 25.0467 41.36 25.36 41.36C25.66 41.36 25.96 41.36 26.26 41.36C26.56 41.36 26.84 41.36 27.1 41.36C27.3667 41.36 27.6 41.3633 27.8 41.37C28.0067 41.37 28.17 41.37 28.29 41.37L28.28 42.11C28 42.0967 27.6233 42.0867 27.15 42.08C26.6833 42.0667 26.0833 42.06 25.35 42.06C24.9167 42.06 24.4633 42.0667 23.99 42.08C23.5233 42.0867 23.0533 42.0967 22.58 42.11C22.1067 42.1233 21.6467 42.1433 21.2 42.17C20.76 42.19 20.3533 42.2133 19.98 42.24L19.96 41.47ZM25.21 44.38C25.21 44.82 25.1433 45.19 25.01 45.49C24.8833 45.79 24.7033 46.0133 24.47 46.16C24.2433 46.3067 23.9767 46.38 23.67 46.38C23.4633 46.38 23.26 46.3467 23.06 46.28C22.8667 46.2067 22.69 46.1 22.53 45.96C22.3767 45.8133 22.2533 45.6367 22.16 45.43C22.0733 45.2167 22.03 44.9767 22.03 44.71C22.03 44.3767 22.11 44.08 22.27 43.82C22.43 43.56 22.6433 43.3533 22.91 43.2C23.1833 43.0467 23.4767 42.97 23.79 42.97C24.1833 42.97 24.5067 43.06 24.76 43.24C25.02 43.4133 25.2167 43.6533 25.35 43.96C25.4833 44.26 25.55 44.6033 25.55 44.99C25.55 45.3233 25.5 45.6633 25.4 46.01C25.3067 46.3567 25.1467 46.69 24.92 47.01C24.7 47.33 24.3967 47.6233 24.01 47.89C23.63 48.15 23.1467 48.3667 22.56 48.54L21.89 47.88C22.3433 47.7733 22.75 47.6367 23.11 47.47C23.47 47.3033 23.7733 47.1 24.02 46.86C24.2667 46.62 24.4533 46.34 24.58 46.02C24.7133 45.7 24.78 45.3333 24.78 44.92C24.78 44.4667 24.6833 44.14 24.49 43.94C24.2967 43.74 24.0633 43.64 23.79 43.64C23.6167 43.64 23.4533 43.6833 23.3 43.77C23.1467 43.85 23.02 43.97 22.92 44.13C22.8267 44.29 22.78 44.48 22.78 44.7C22.78 45.0133 22.88 45.2567 23.08 45.43C23.2867 45.6033 23.5267 45.69 23.8 45.69C24.0067 45.69 24.1833 45.6333 24.33 45.52C24.4767 45.4 24.58 45.2233 24.64 44.99C24.7067 44.75 24.7133 44.4533 24.66 44.1L25.21 44.38Z" fill="white"/>
<path d="M16.667 7.16699C20.0726 7.16717 22.833 9.92834 22.833 13.334C22.8328 16.7395 20.0725 19.4998 16.667 19.5C13.2613 19.5 10.5002 16.7396 10.5 13.334C10.5 9.92823 13.2612 7.16699 16.667 7.16699Z" stroke="white"/>
<path d="M16.5637 23.8447C16.1393 25.3676 15.4887 29.186 18.1848 32.834H3.83325V30C3.83338 29.0516 4.31757 28.1818 5.20142 27.3906C6.08814 26.5969 7.33962 25.9195 8.76392 25.374C11.3406 24.3872 14.3762 23.8748 16.5637 23.8447Z" stroke="white"/>
<path d="M26.667 20.5C30.074 20.5002 32.833 23.2599 32.833 26.667C32.8329 27.8039 32.5104 28.8639 31.9561 29.7725L31.752 30.1084L32.0293 30.3867L35.959 34.3164L34.3164 35.959L30.1123 31.7549L29.7783 31.9531C28.8625 32.4964 27.7997 32.8329 26.667 32.833C23.2599 32.833 20.5002 30.074 20.5 26.667C20.5 23.2598 23.2598 20.5 26.667 20.5ZM26.667 22.833C24.5575 22.833 22.833 24.5575 22.833 26.667C22.8332 28.7763 24.5576 30.5 26.667 30.5C28.7762 30.4998 30.4998 28.7762 30.5 26.667C30.5 24.5576 28.7763 22.8332 26.667 22.833Z" stroke="white"/>
</svg>
