<svg width="40" height="53" viewBox="0 0 40 53" fill="none" xmlns="http://www.w3.org/2000/svg">
<g clip-path="url(#clip0_271_380)">
<path d="M16.6667 20.0003C20.3486 20.0003 23.3333 17.0156 23.3333 13.3337C23.3333 9.65176 20.3486 6.66699 16.6667 6.66699C12.9848 6.66699 10 9.65176 10 13.3337C10 17.0156 12.9848 20.0003 16.6667 20.0003Z" fill="white"/>
<path d="M17.2499 23.3504C12.6999 23.1837 3.33325 25.4504 3.33325 30.0004V33.3337H19.2333C15.1166 28.7337 17.1833 23.517 17.2499 23.3504Z" fill="white"/>
<path d="M32.3833 30.0333C32.9833 29.05 33.3333 27.9 33.3333 26.6667C33.3333 22.9833 30.35 20 26.6667 20C22.9833 20 20 22.9833 20 26.6667C20 30.35 22.9833 33.3333 26.6667 33.3333C27.9 33.3333 29.05 32.9667 30.0333 32.3833L34.3167 36.6667L36.6667 34.3167L32.3833 30.0333ZM26.6667 30C24.8333 30 23.3333 28.5 23.3333 26.6667C23.3333 24.8333 24.8333 23.3333 26.6667 23.3333C28.5 23.3333 30 24.8333 30 26.6667C30 28.5 28.5 30 26.6667 30Z" fill="white"/>
</g>
<path d="M13.56 47.7H19.55V48.77H13.56V47.7ZM16.77 44.22H17.84V45.67C17.84 45.7833 17.8533 45.8567 17.88 45.89C17.9133 45.9167 17.9733 45.93 18.06 45.93C18.0867 45.93 18.13 45.93 18.19 45.93C18.2567 45.93 18.3233 45.93 18.39 45.93C18.4633 45.93 18.5133 45.93 18.54 45.93C18.6 45.93 18.6467 45.9133 18.68 45.88C18.7133 45.8467 18.7367 45.7767 18.75 45.67C18.7633 45.5633 18.7733 45.3967 18.78 45.17C18.88 45.25 19.0233 45.3267 19.21 45.4C19.4033 45.4733 19.5733 45.5267 19.72 45.56C19.6867 45.9067 19.6267 46.1767 19.54 46.37C19.46 46.5567 19.35 46.69 19.21 46.77C19.07 46.8433 18.89 46.88 18.67 46.88C18.63 46.88 18.5733 46.88 18.5 46.88C18.4267 46.88 18.35 46.88 18.27 46.88C18.1967 46.88 18.1233 46.88 18.05 46.88C17.9767 46.88 17.92 46.88 17.88 46.88C17.5733 46.88 17.34 46.8433 17.18 46.77C17.02 46.6967 16.91 46.57 16.85 46.39C16.7967 46.21 16.77 45.97 16.77 45.67V44.22ZM13.66 42.96H19.53V44.96H18.46V43.98H14.68V45.01H13.66V42.96ZM15.94 46.7H17.12V51.89H15.94V46.7ZM15.17 44.23H16.25C16.23 44.61 16.1867 44.9533 16.12 45.26C16.0533 45.5667 15.9433 45.8367 15.79 46.07C15.6367 46.3033 15.4167 46.5067 15.13 46.68C14.8433 46.8533 14.4733 46.9967 14.02 47.11C13.9733 46.9833 13.8933 46.8367 13.78 46.67C13.6667 46.4967 13.5567 46.36 13.45 46.26C13.8167 46.18 14.11 46.0833 14.33 45.97C14.5567 45.85 14.7267 45.71 14.84 45.55C14.9533 45.3833 15.03 45.1933 15.07 44.98C15.1167 44.76 15.15 44.51 15.17 44.23ZM17.42 48.22C17.5867 48.5267 17.7967 48.83 18.05 49.13C18.31 49.43 18.5933 49.7067 18.9 49.96C19.2133 50.2067 19.53 50.4133 19.85 50.58C19.7633 50.6533 19.6667 50.7433 19.56 50.85C19.46 50.9567 19.3633 51.0667 19.27 51.18C19.1767 51.3 19.1 51.41 19.04 51.51C18.7067 51.2967 18.38 51.0333 18.06 50.72C17.7467 50.4067 17.4567 50.0667 17.19 49.7C16.9233 49.3267 16.6933 48.9433 16.5 48.55L17.42 48.22ZM15.68 48.11L16.61 48.42C16.4033 48.8667 16.15 49.2933 15.85 49.7C15.5567 50.1 15.23 50.4633 14.87 50.79C14.51 51.11 14.1233 51.3767 13.71 51.59C13.6167 51.45 13.4967 51.2867 13.35 51.1C13.21 50.92 13.0733 50.78 12.94 50.68C13.3267 50.5133 13.6967 50.3 14.05 50.04C14.4033 49.7733 14.72 49.4733 15 49.14C15.28 48.8067 15.5067 48.4633 15.68 48.11ZM10.21 47.53C10.61 47.4433 11.0867 47.3267 11.64 47.18C12.2 47.0333 12.7633 46.88 13.33 46.72L13.48 47.8C12.9667 47.9533 12.4467 48.1067 11.92 48.26C11.4 48.4133 10.9167 48.5533 10.47 48.68L10.21 47.53ZM10.37 44.4H13.43V45.5H10.37V44.4ZM11.42 42.51H12.52V50.63C12.52 50.9033 12.49 51.12 12.43 51.28C12.3767 51.4467 12.2733 51.5767 12.12 51.67C11.9733 51.7633 11.7867 51.8267 11.56 51.86C11.34 51.8933 11.0633 51.9067 10.73 51.9C10.7167 51.7533 10.68 51.57 10.62 51.35C10.56 51.1367 10.4933 50.95 10.42 50.79C10.6067 50.7967 10.7767 50.8033 10.93 50.81C11.09 50.81 11.2 50.8067 11.26 50.8C11.32 50.8 11.36 50.79 11.38 50.77C11.4067 50.7433 11.42 50.6967 11.42 50.63V42.51ZM26.53 42.94C26.5233 42.9933 26.5133 43.08 26.5 43.2C26.4933 43.3133 26.4867 43.43 26.48 43.55C26.4733 43.6633 26.4667 43.7467 26.46 43.8C26.4533 43.9333 26.45 44.1133 26.45 44.34C26.45 44.56 26.45 44.8067 26.45 45.08C26.45 45.3533 26.45 45.63 26.45 45.91C26.4567 46.1833 26.46 46.4433 26.46 46.69C26.4667 46.93 26.47 47.13 26.47 47.29L25.22 46.87C25.22 46.7433 25.22 46.5767 25.22 46.37C25.22 46.1567 25.22 45.9267 25.22 45.68C25.22 45.4267 25.2167 45.1767 25.21 44.93C25.21 44.6833 25.2067 44.46 25.2 44.26C25.1933 44.06 25.1867 43.91 25.18 43.81C25.1667 43.6033 25.15 43.4233 25.13 43.27C25.11 43.11 25.0933 43 25.08 42.94H26.53ZM20.88 44.18C21.1733 44.18 21.5067 44.1767 21.88 44.17C22.2533 44.1633 22.6433 44.1567 23.05 44.15C23.4567 44.1433 23.8567 44.1367 24.25 44.13C24.6433 44.1233 25.0133 44.12 25.36 44.12C25.7067 44.1133 26.0067 44.11 26.26 44.11C26.5133 44.11 26.79 44.11 27.09 44.11C27.39 44.1033 27.6867 44.1 27.98 44.1C28.2733 44.1 28.54 44.1 28.78 44.1C29.0267 44.1 29.2167 44.1 29.35 44.1L29.34 45.28C29.0267 45.2667 28.6133 45.2567 28.1 45.25C27.5867 45.2367 26.96 45.23 26.22 45.23C25.7667 45.23 25.3067 45.2367 24.84 45.25C24.3733 45.2567 23.91 45.2667 23.45 45.28C22.99 45.2933 22.5467 45.31 22.12 45.33C21.6933 45.3433 21.29 45.3633 20.91 45.39L20.88 44.18ZM26.29 47.14C26.29 47.6867 26.2233 48.14 26.09 48.5C25.9633 48.86 25.77 49.1333 25.51 49.32C25.25 49.5 24.9267 49.59 24.54 49.59C24.3533 49.59 24.1567 49.55 23.95 49.47C23.75 49.39 23.5633 49.2733 23.39 49.12C23.2167 48.9667 23.0767 48.7767 22.97 48.55C22.87 48.3233 22.82 48.0567 22.82 47.75C22.82 47.37 22.91 47.0433 23.09 46.77C23.27 46.49 23.51 46.2733 23.81 46.12C24.1167 45.96 24.4533 45.88 24.82 45.88C25.26 45.88 25.6267 45.98 25.92 46.18C26.22 46.3733 26.4433 46.6367 26.59 46.97C26.7433 47.3033 26.82 47.68 26.82 48.1C26.82 48.4267 26.7667 48.7667 26.66 49.12C26.5533 49.4733 26.3767 49.82 26.13 50.16C25.89 50.4933 25.5633 50.7967 25.15 51.07C24.7433 51.3433 24.2333 51.5667 23.62 51.74L22.55 50.68C22.9767 50.5933 23.3733 50.48 23.74 50.34C24.1067 50.2 24.4267 50.0233 24.7 49.81C24.98 49.5967 25.1967 49.3333 25.35 49.02C25.51 48.7067 25.59 48.33 25.59 47.89C25.59 47.57 25.51 47.33 25.35 47.17C25.1967 47.01 25.01 46.93 24.79 46.93C24.6633 46.93 24.54 46.96 24.42 47.02C24.3 47.08 24.2033 47.17 24.13 47.29C24.0567 47.41 24.02 47.5567 24.02 47.73C24.02 47.9567 24.0967 48.14 24.25 48.28C24.41 48.4133 24.59 48.48 24.79 48.48C24.95 48.48 25.09 48.43 25.21 48.33C25.3367 48.23 25.42 48.0633 25.46 47.83C25.5 47.5967 25.4667 47.2833 25.36 46.89L26.29 47.14Z" fill="white"/>
<defs>
<clipPath id="clip0_271_380">
<rect width="40" height="40" fill="white"/>
</clipPath>
</defs>
</svg>
