<svg width="40" height="52" viewBox="0 0 40 52" fill="none" xmlns="http://www.w3.org/2000/svg">
<mask id="mask0_255_2685" style="mask-type:alpha" maskUnits="userSpaceOnUse" x="0" y="0" width="40" height="40">
<rect width="40" height="40" fill="#D9D9D9"/>
</mask>
<g mask="url(#mask0_255_2685)">
<path d="M18.3333 35V21.7083C16.5556 21.7083 14.8472 21.3681 13.2083 20.6875C11.5694 20.0069 10.125 19.0417 8.875 17.7917C7.625 16.5417 6.66667 15.0972 6 13.4583C5.33333 11.8194 5 10.1111 5 8.33333V5H8.33333C10.0833 5 11.7778 5.34028 13.4167 6.02083C15.0556 6.70139 16.5 7.66667 17.75 8.91667C18.6111 9.77778 19.3264 10.7222 19.8958 11.75C20.4653 12.7778 20.9028 13.875 21.2083 15.0417C21.3472 14.8472 21.5 14.6597 21.6667 14.4792C21.8333 14.2986 22.0139 14.1111 22.2083 13.9167C23.4583 12.6667 24.9028 11.7014 26.5417 11.0208C28.1806 10.3403 29.8889 10 31.6667 10H35V13.3333C35 15.1111 34.6597 16.8194 33.9792 18.4583C33.2986 20.0972 32.3333 21.5417 31.0833 22.7917C29.8333 24.0417 28.3958 25 26.7708 25.6667C25.1458 26.3333 23.4444 26.6667 21.6667 26.6667V35H18.3333ZM18.3333 18.3333C18.3333 17 18.0764 15.7292 17.5625 14.5208C17.0486 13.3125 16.3194 12.2361 15.375 11.2917C14.4306 10.3472 13.3542 9.61806 12.1458 9.10417C10.9375 8.59028 9.66667 8.33333 8.33333 8.33333C8.33333 9.66667 8.58333 10.9444 9.08333 12.1667C9.58333 13.3889 10.3056 14.4722 11.25 15.4167C12.1944 16.3611 13.2778 17.0833 14.5 17.5833C15.7222 18.0833 17 18.3333 18.3333 18.3333ZM21.6667 23.3333C23 23.3333 24.2708 23.0833 25.4792 22.5833C26.6875 22.0833 27.7639 21.3611 28.7083 20.4167C29.6528 19.4722 30.3819 18.3889 30.8958 17.1667C31.4097 15.9444 31.6667 14.6667 31.6667 13.3333C30.3333 13.3333 29.0556 13.5903 27.8333 14.1042C26.6111 14.6181 25.5278 15.3472 24.5833 16.2917C23.6389 17.2361 22.9167 18.3125 22.4167 19.5208C21.9167 20.7292 21.6667 22 21.6667 23.3333Z" fill="white"/>
</g>
<path d="M8.16 42.48H14.55V43.56H8.16V42.48ZM8.26 44.81H14.5V50.62H13.34V45.86H9.36V50.68H8.26V44.81ZM9.88 42.62H11.01V45.59H9.88V42.62ZM11.67 42.61H12.8V45.58H11.67V42.61ZM8.76 49.08H14.19V50.11H8.76V49.08ZM9.99 45.58H11V49.88H9.99V45.58ZM11.67 45.57H12.68V49.87H11.67V45.57ZM7.3 41.53L8.38 41.87C8.18 42.4167 7.94 42.9667 7.66 43.52C7.38 44.0733 7.07667 44.5967 6.75 45.09C6.42333 45.5767 6.08667 46.0067 5.74 46.38C5.7 46.2867 5.64333 46.1633 5.57 46.01C5.50333 45.8567 5.42667 45.7033 5.34 45.55C5.26 45.39 5.18667 45.2633 5.12 45.17C5.41333 44.8767 5.69333 44.5367 5.96 44.15C6.23333 43.7567 6.48333 43.3367 6.71 42.89C6.93667 42.4433 7.13333 41.99 7.3 41.53ZM6.34 44.32L7.46 43.19L7.47 43.21V50.89H6.34V44.32ZM18.64 42.42H24.58V43.44H18.64V42.42ZM18.95 49.4H24.64V50.43H18.95V49.4ZM21.27 41.51L22.46 41.57C22.44 41.8967 22.41 42.2367 22.37 42.59C22.33 42.9433 22.2867 43.2833 22.24 43.61C22.2 43.9367 22.16 44.2267 22.12 44.48H21.01C21.05 44.22 21.0867 43.92 21.12 43.58C21.1533 43.24 21.1833 42.89 21.21 42.53C21.2367 42.17 21.2567 41.83 21.27 41.51ZM21.22 46.18V46.7H23.01V46.18H21.22ZM21.22 47.5V48.02H23.01V47.5H21.22ZM21.22 44.86V45.37H23.01V44.86H21.22ZM20.11 44H24.16V48.88H20.11V44ZM18.39 44.59H19.5V50.89H18.39V44.59ZM17.37 41.54L18.5 41.9C18.2867 42.46 18.0333 43.0267 17.74 43.6C17.4467 44.1667 17.13 44.7067 16.79 45.22C16.45 45.7267 16.0967 46.17 15.73 46.55C15.6967 46.45 15.64 46.3233 15.56 46.17C15.4867 46.01 15.4067 45.85 15.32 45.69C15.2333 45.53 15.1567 45.4 15.09 45.3C15.39 44.9933 15.68 44.64 15.96 44.24C16.2467 43.84 16.51 43.41 16.75 42.95C16.9967 42.49 17.2033 42.02 17.37 41.54ZM16.41 44.31L17.55 43.17V43.18V50.88H16.41V44.31ZM26.66 46.9H29.8V47.65H26.66V46.9ZM26.67 48.12H29.8V48.87H26.67V48.12ZM25.43 43.92H30.01V44.86H25.43V43.92ZM26.6 49.39H29.94V50.26H26.6V49.39ZM27.84 46.03H28.85V49.68H27.84V46.03ZM27.19 45.63H29.94V46.41H27.19V50.68H26.14V46.48L26.96 45.63H27.19ZM28.22 44.88L29.3 45.05C29.1933 45.2433 29.0867 45.43 28.98 45.61C28.88 45.7833 28.7867 45.9333 28.7 46.06L27.88 45.86C27.9467 45.7133 28.0133 45.55 28.08 45.37C28.1467 45.1833 28.1933 45.02 28.22 44.88ZM26.37 41.47L27.42 41.73C27.2933 42.1633 27.1167 42.59 26.89 43.01C26.67 43.4233 26.4367 43.77 26.19 44.05C26.13 43.99 26.0467 43.92 25.94 43.84C25.8333 43.7533 25.7233 43.6733 25.61 43.6C25.4967 43.52 25.3967 43.4567 25.31 43.41C25.5433 43.17 25.75 42.8767 25.93 42.53C26.1167 42.1833 26.2633 41.83 26.37 41.47ZM27.38 42.84L28.41 43.1C28.2367 43.66 28.02 44.2033 27.76 44.73C27.5067 45.2567 27.22 45.7467 26.9 46.2C26.5867 46.6467 26.2467 47.0367 25.88 47.37C25.84 47.29 25.7767 47.1933 25.69 47.08C25.61 46.96 25.5233 46.84 25.43 46.72C25.3433 46.6 25.2667 46.5033 25.2 46.43C25.6867 46.0233 26.12 45.5033 26.5 44.87C26.88 44.2367 27.1733 43.56 27.38 42.84ZM26.7 42.31H29.92V43.25H26.24L26.7 42.31ZM31.3 44.52V45.19H33.15V44.52H31.3ZM31.3 46.13V46.8H33.15V46.13H31.3ZM31.3 42.93V43.58H33.15V42.93H31.3ZM30.26 41.88H34.25V47.85H30.26V41.88ZM32.25 47.1H33.3V49.44C33.3 49.5733 33.3067 49.6567 33.32 49.69C33.3333 49.7233 33.37 49.74 33.43 49.74C33.45 49.74 33.4767 49.74 33.51 49.74C33.55 49.74 33.5867 49.74 33.62 49.74C33.66 49.74 33.69 49.74 33.71 49.74C33.7567 49.74 33.79 49.7133 33.81 49.66C33.8367 49.6067 33.8567 49.5 33.87 49.34C33.89 49.1733 33.9033 48.9167 33.91 48.57C34.0033 48.6567 34.1433 48.7367 34.33 48.81C34.5233 48.8833 34.69 48.94 34.83 48.98C34.8033 49.44 34.75 49.7967 34.67 50.05C34.5967 50.3033 34.4933 50.4767 34.36 50.57C34.2267 50.67 34.05 50.72 33.83 50.72C33.7767 50.72 33.7133 50.72 33.64 50.72C33.5733 50.72 33.5033 50.72 33.43 50.72C33.3567 50.72 33.2933 50.72 33.24 50.72C32.9733 50.72 32.7667 50.68 32.62 50.6C32.48 50.52 32.3833 50.3867 32.33 50.2C32.2767 50.02 32.25 49.7733 32.25 49.46V47.1ZM30.86 47.42H31.86C31.8267 47.9333 31.75 48.41 31.63 48.85C31.51 49.2833 31.3133 49.67 31.04 50.01C30.7733 50.3567 30.3833 50.65 29.87 50.89C29.8167 50.7633 29.7233 50.6133 29.59 50.44C29.4633 50.2667 29.3433 50.1333 29.23 50.04C29.6633 49.86 29.99 49.6433 30.21 49.39C30.43 49.13 30.5833 48.8333 30.67 48.5C30.7633 48.1667 30.8267 47.8067 30.86 47.42Z" fill="white"/>
</svg>
