<svg width="47" height="50" viewBox="0 0 47 50" fill="none" xmlns="http://www.w3.org/2000/svg">
<path d="M8.13 40.61H14.51V41.3H8.13V40.61ZM8.27 42.94H14.42V48.58H13.7V43.6H8.96V48.63H8.27V42.94ZM10.02 40.72H10.72V43.42H10.02V40.72ZM11.88 40.71H12.59V43.41H11.88V40.71ZM8.59 47.32H14.22V47.98H8.59V47.32ZM10.07 43.4H10.72V47.82H10.07V43.4ZM11.88 43.4H12.53V47.81H11.88V43.4ZM7.54 39.63L8.22 39.84C8.01333 40.3933 7.77 40.94 7.49 41.48C7.21667 42.0133 6.92 42.52 6.6 43C6.28 43.4733 5.94667 43.8933 5.6 44.26C5.58 44.2067 5.54333 44.1333 5.49 44.04C5.44333 43.9467 5.39333 43.8533 5.34 43.76C5.28667 43.6667 5.23667 43.5933 5.19 43.54C5.50333 43.22 5.80333 42.85 6.09 42.43C6.38333 42.01 6.65333 41.5633 6.9 41.09C7.14667 40.61 7.36 40.1233 7.54 39.63ZM6.55 42.22L7.24 41.52L7.25 41.53V48.79H6.55V42.22ZM18.51 40.62H24.54V41.29H18.51V40.62ZM18.73 47.63H24.6V48.3H18.73V47.63ZM21.35 39.6L22.1 39.65C22.0733 39.95 22.0433 40.2733 22.01 40.62C21.9767 40.9667 21.94 41.3 21.9 41.62C21.86 41.9333 21.8167 42.21 21.77 42.45H21.07C21.11 42.2033 21.1467 41.9167 21.18 41.59C21.2133 41.2567 21.2467 40.9167 21.28 40.57C21.3133 40.2233 21.3367 39.9 21.35 39.6ZM20.69 44.07V44.89H23.25V44.07H20.69ZM20.69 45.44V46.28H23.25V45.44H20.69ZM20.69 42.71V43.52H23.25V42.71H20.69ZM19.98 42.13H23.98V46.85H19.98V42.13ZM18.4 42.64H19.1V48.79H18.4V42.64ZM17.64 39.64L18.35 39.85C18.1367 40.4167 17.8833 40.9767 17.59 41.53C17.2967 42.0767 16.98 42.5933 16.64 43.08C16.3 43.5667 15.9467 43.9967 15.58 44.37C15.56 44.31 15.5233 44.2333 15.47 44.14C15.4233 44.0467 15.37 43.9533 15.31 43.86C15.2567 43.76 15.2067 43.6833 15.16 43.63C15.4933 43.3033 15.8133 42.9267 16.12 42.5C16.4267 42.0733 16.71 41.6167 16.97 41.13C17.23 40.6367 17.4533 40.14 17.64 39.64ZM16.6 42.21L17.31 41.5L17.32 41.52V48.78H16.6V42.21ZM26.56 44.94H29.74V45.46H26.56V44.94ZM26.57 46.2H29.75V46.72H26.57V46.2ZM25.48 42.08H30.02V42.69H25.48V42.08ZM26.54 47.52H29.95V48.1H26.54V47.52ZM27.92 43.93H28.57V47.74H27.92V43.93ZM26.89 43.68H29.88V44.22H26.89V48.57H26.22V44.19L26.71 43.68H26.89ZM28.27 42.87L28.96 43.02C28.86 43.2 28.76 43.38 28.66 43.56C28.5667 43.7333 28.48 43.8867 28.4 44.02L27.87 43.87C27.9367 43.7233 28.01 43.5567 28.09 43.37C28.17 43.1767 28.23 43.01 28.27 42.87ZM26.56 39.6L27.24 39.76C27.1067 40.1933 26.93 40.61 26.71 41.01C26.4967 41.41 26.2667 41.75 26.02 42.03C25.9867 41.99 25.9333 41.9433 25.86 41.89C25.7867 41.8367 25.7133 41.7867 25.64 41.74C25.5667 41.6867 25.5033 41.6467 25.45 41.62C25.69 41.3667 25.9033 41.0633 26.09 40.71C26.2833 40.35 26.44 39.98 26.56 39.6ZM27.46 40.83L28.12 40.99C27.9533 41.55 27.75 42.0867 27.51 42.6C27.2767 43.1133 27.0133 43.59 26.72 44.03C26.4267 44.4633 26.1067 44.8433 25.76 45.17C25.7333 45.1233 25.69 45.0633 25.63 44.99C25.5767 44.9167 25.52 44.8433 25.46 44.77C25.4 44.6967 25.3467 44.6367 25.3 44.59C25.7867 44.1567 26.2167 43.61 26.59 42.95C26.9633 42.29 27.2533 41.5833 27.46 40.83ZM26.58 40.51H29.85V41.12H26.31L26.58 40.51ZM30.96 42.34V43.38H33.45V42.34H30.96ZM30.96 43.99V45.04H33.45V43.99H30.96ZM30.96 40.69V41.72H33.45V40.69H30.96ZM30.28 40.02H34.15V45.72H30.28V40.02ZM32.42 45.22H33.09V47.77C33.09 47.8767 33.1 47.9467 33.12 47.98C33.1467 48.0133 33.2067 48.03 33.3 48.03C33.32 48.03 33.3667 48.03 33.44 48.03C33.5133 48.03 33.5867 48.03 33.66 48.03C33.74 48.03 33.7967 48.03 33.83 48.03C33.8967 48.03 33.9433 48 33.97 47.94C34.0033 47.88 34.0267 47.7567 34.04 47.57C34.06 47.3833 34.0733 47.0967 34.08 46.71C34.1533 46.77 34.25 46.8267 34.37 46.88C34.49 46.9267 34.5967 46.9633 34.69 46.99C34.67 47.4367 34.6333 47.78 34.58 48.02C34.5267 48.2667 34.4467 48.4333 34.34 48.52C34.2333 48.6133 34.09 48.66 33.91 48.66C33.8633 48.66 33.79 48.66 33.69 48.66C33.5967 48.66 33.5 48.66 33.4 48.66C33.3067 48.66 33.24 48.66 33.2 48.66C32.9867 48.66 32.8233 48.6333 32.71 48.58C32.5967 48.5333 32.52 48.4433 32.48 48.31C32.44 48.1767 32.42 47.9967 32.42 47.77V45.22ZM31.04 45.4H31.69C31.6433 45.92 31.5533 46.4 31.42 46.84C31.2933 47.2733 31.0867 47.6567 30.8 47.99C30.52 48.3167 30.13 48.59 29.63 48.81C29.59 48.73 29.5267 48.6367 29.44 48.53C29.36 48.4233 29.2833 48.34 29.21 48.28C29.6633 48.1 30.0133 47.87 30.26 47.59C30.5133 47.31 30.6967 46.9867 30.81 46.62C30.9233 46.2467 31 45.84 31.04 45.4Z" fill="white"/>
<mask id="mask0_597_930" style="mask-type:alpha" maskUnits="userSpaceOnUse" x="0" y="0" width="40" height="40">
<rect width="40" height="40" fill="#D9D9D9"/>
</mask>
<g mask="url(#mask0_597_930)">
<path d="M31.667 12.833C30.2675 12.833 28.9236 13.1037 27.6396 13.6436C26.3573 14.1827 25.2194 14.9486 24.2295 15.9385C23.2398 16.9283 22.4807 18.0598 21.9551 19.3301C21.4296 20.6001 21.167 21.9356 21.167 23.333V23.833H21.667C23.0644 23.833 24.3999 23.5704 25.6699 23.0449C26.9402 22.5193 28.0717 21.7602 29.0615 20.7705C30.0514 19.7806 30.8173 18.6427 31.3564 17.3604C31.8963 16.0764 32.167 14.7325 32.167 13.333V12.833H31.667ZM7.83301 8.33301C7.83301 9.73062 8.09529 11.0735 8.62012 12.3564C9.14555 13.6407 9.9057 14.7797 10.8965 15.7705C11.8872 16.7612 13.0263 17.5205 14.3105 18.0459C15.5934 18.5707 16.9355 18.833 18.333 18.833H18.833V18.333C18.833 16.9336 18.563 15.5963 18.0225 14.3252C17.4831 13.0569 16.7174 11.9274 15.7285 10.9385C14.7397 9.94963 13.61 9.18393 12.3418 8.64453C11.0706 8.10391 9.73252 7.83301 8.33301 7.83301H7.83301V8.33301ZM18.833 21.208H18.333C16.6211 21.208 14.9782 20.8808 13.4004 20.2256C11.8218 19.5701 10.432 18.6419 9.22852 17.4385C8.02574 16.2357 7.10444 14.8467 6.46289 13.2695C5.8208 11.6909 5.5 10.0464 5.5 8.33301V5.5H8.33301C10.0161 5.5 11.6457 5.82683 13.2246 6.48242C14.8032 7.13795 16.193 8.06701 17.3965 9.27051C18.2257 10.0997 18.912 11.0069 19.458 11.9922C20.0067 12.9824 20.4293 14.0407 20.7246 15.168L20.9951 16.2002L21.6152 15.332C21.7416 15.1551 21.8813 14.984 22.0342 14.8184C22.1957 14.6433 22.3714 14.4607 22.5615 14.2705C23.765 13.067 25.1548 12.138 26.7334 11.4824C28.3114 10.8272 29.9549 10.5 31.667 10.5H34.5V13.333C34.5 15.0451 34.1728 16.6886 33.5176 18.2666C32.862 19.8452 31.933 21.235 30.7295 22.4385C29.5261 23.6418 28.1442 24.5628 26.5811 25.2041C25.0171 25.8457 23.3804 26.167 21.667 26.167H21.167V34.5H18.833V21.208Z" stroke="white"/>
</g>
<circle cx="43" cy="5" r="4" fill="#16D998"/>
</svg>
