<svg width="40" height="52" viewBox="0 0 40 52" fill="none" xmlns="http://www.w3.org/2000/svg">
<mask id="mask0_271_332" style="mask-type:alpha" maskUnits="userSpaceOnUse" x="0" y="0" width="40" height="40">
<rect width="40" height="40" fill="#D9D9D9"/>
</mask>
<g mask="url(#mask0_271_332)">
<path d="M31.667 12.833C30.2675 12.833 28.9236 13.1037 27.6396 13.6436C26.3573 14.1827 25.2194 14.9486 24.2295 15.9385C23.2398 16.9283 22.4807 18.0598 21.9551 19.3301C21.4296 20.6001 21.167 21.9356 21.167 23.333V23.833H21.667C23.0644 23.833 24.3999 23.5704 25.6699 23.0449C26.9402 22.5193 28.0717 21.7602 29.0615 20.7705C30.0514 19.7806 30.8173 18.6427 31.3564 17.3604C31.8963 16.0764 32.167 14.7325 32.167 13.333V12.833H31.667ZM7.83301 8.33301C7.83301 9.73062 8.09529 11.0735 8.62012 12.3564C9.14555 13.6407 9.9057 14.7797 10.8965 15.7705C11.8872 16.7612 13.0263 17.5205 14.3105 18.0459C15.5934 18.5707 16.9355 18.833 18.333 18.833H18.833V18.333C18.833 16.9336 18.563 15.5963 18.0225 14.3252C17.4831 13.0569 16.7174 11.9274 15.7285 10.9385C14.7397 9.94963 13.61 9.18393 12.3418 8.64453C11.0706 8.10391 9.73252 7.83301 8.33301 7.83301H7.83301V8.33301ZM18.833 21.208H18.333C16.6211 21.208 14.9782 20.8808 13.4004 20.2256C11.8218 19.5701 10.432 18.6419 9.22852 17.4385C8.02574 16.2357 7.10444 14.8467 6.46289 13.2695C5.8208 11.6909 5.5 10.0464 5.5 8.33301V5.5H8.33301C10.0161 5.5 11.6457 5.82683 13.2246 6.48242C14.8032 7.13795 16.193 8.06701 17.3965 9.27051C18.2257 10.0997 18.912 11.0069 19.458 11.9922C20.0067 12.9824 20.4293 14.0407 20.7246 15.168L20.9951 16.2002L21.6152 15.332C21.7416 15.1551 21.8813 14.984 22.0342 14.8184C22.1957 14.6433 22.3714 14.4607 22.5615 14.2705C23.765 13.067 25.1548 12.138 26.7334 11.4824C28.3114 10.8272 29.9549 10.5 31.667 10.5H34.5V13.333C34.5 15.0451 34.1728 16.6886 33.5176 18.2666C32.862 19.8452 31.933 21.235 30.7295 22.4385C29.5261 23.6418 28.1442 24.5628 26.5811 25.2041C25.0171 25.8457 23.3804 26.167 21.667 26.167H21.167V34.5H18.833V21.208Z" stroke="white"/>
</g>
<path d="M8.13 42.61H14.51V43.3H8.13V42.61ZM8.27 44.94H14.42V50.58H13.7V45.6H8.96V50.63H8.27V44.94ZM10.02 42.72H10.72V45.42H10.02V42.72ZM11.88 42.71H12.59V45.41H11.88V42.71ZM8.59 49.32H14.22V49.98H8.59V49.32ZM10.07 45.4H10.72V49.82H10.07V45.4ZM11.88 45.4H12.53V49.81H11.88V45.4ZM7.54 41.63L8.22 41.84C8.01333 42.3933 7.77 42.94 7.49 43.48C7.21667 44.0133 6.92 44.52 6.6 45C6.28 45.4733 5.94667 45.8933 5.6 46.26C5.58 46.2067 5.54333 46.1333 5.49 46.04C5.44333 45.9467 5.39333 45.8533 5.34 45.76C5.28667 45.6667 5.23667 45.5933 5.19 45.54C5.50333 45.22 5.80333 44.85 6.09 44.43C6.38333 44.01 6.65333 43.5633 6.9 43.09C7.14667 42.61 7.36 42.1233 7.54 41.63ZM6.55 44.22L7.24 43.52L7.25 43.53V50.79H6.55V44.22ZM18.51 42.62H24.54V43.29H18.51V42.62ZM18.73 49.63H24.6V50.3H18.73V49.63ZM21.35 41.6L22.1 41.65C22.0733 41.95 22.0433 42.2733 22.01 42.62C21.9767 42.9667 21.94 43.3 21.9 43.62C21.86 43.9333 21.8167 44.21 21.77 44.45H21.07C21.11 44.2033 21.1467 43.9167 21.18 43.59C21.2133 43.2567 21.2467 42.9167 21.28 42.57C21.3133 42.2233 21.3367 41.9 21.35 41.6ZM20.69 46.07V46.89H23.25V46.07H20.69ZM20.69 47.44V48.28H23.25V47.44H20.69ZM20.69 44.71V45.52H23.25V44.71H20.69ZM19.98 44.13H23.98V48.85H19.98V44.13ZM18.4 44.64H19.1V50.79H18.4V44.64ZM17.64 41.64L18.35 41.85C18.1367 42.4167 17.8833 42.9767 17.59 43.53C17.2967 44.0767 16.98 44.5933 16.64 45.08C16.3 45.5667 15.9467 45.9967 15.58 46.37C15.56 46.31 15.5233 46.2333 15.47 46.14C15.4233 46.0467 15.37 45.9533 15.31 45.86C15.2567 45.76 15.2067 45.6833 15.16 45.63C15.4933 45.3033 15.8133 44.9267 16.12 44.5C16.4267 44.0733 16.71 43.6167 16.97 43.13C17.23 42.6367 17.4533 42.14 17.64 41.64ZM16.6 44.21L17.31 43.5L17.32 43.52V50.78H16.6V44.21ZM26.56 46.94H29.74V47.46H26.56V46.94ZM26.57 48.2H29.75V48.72H26.57V48.2ZM25.48 44.08H30.02V44.69H25.48V44.08ZM26.54 49.52H29.95V50.1H26.54V49.52ZM27.92 45.93H28.57V49.74H27.92V45.93ZM26.89 45.68H29.88V46.22H26.89V50.57H26.22V46.19L26.71 45.68H26.89ZM28.27 44.87L28.96 45.02C28.86 45.2 28.76 45.38 28.66 45.56C28.5667 45.7333 28.48 45.8867 28.4 46.02L27.87 45.87C27.9367 45.7233 28.01 45.5567 28.09 45.37C28.17 45.1767 28.23 45.01 28.27 44.87ZM26.56 41.6L27.24 41.76C27.1067 42.1933 26.93 42.61 26.71 43.01C26.4967 43.41 26.2667 43.75 26.02 44.03C25.9867 43.99 25.9333 43.9433 25.86 43.89C25.7867 43.8367 25.7133 43.7867 25.64 43.74C25.5667 43.6867 25.5033 43.6467 25.45 43.62C25.69 43.3667 25.9033 43.0633 26.09 42.71C26.2833 42.35 26.44 41.98 26.56 41.6ZM27.46 42.83L28.12 42.99C27.9533 43.55 27.75 44.0867 27.51 44.6C27.2767 45.1133 27.0133 45.59 26.72 46.03C26.4267 46.4633 26.1067 46.8433 25.76 47.17C25.7333 47.1233 25.69 47.0633 25.63 46.99C25.5767 46.9167 25.52 46.8433 25.46 46.77C25.4 46.6967 25.3467 46.6367 25.3 46.59C25.7867 46.1567 26.2167 45.61 26.59 44.95C26.9633 44.29 27.2533 43.5833 27.46 42.83ZM26.58 42.51H29.85V43.12H26.31L26.58 42.51ZM30.96 44.34V45.38H33.45V44.34H30.96ZM30.96 45.99V47.04H33.45V45.99H30.96ZM30.96 42.69V43.72H33.45V42.69H30.96ZM30.28 42.02H34.15V47.72H30.28V42.02ZM32.42 47.22H33.09V49.77C33.09 49.8767 33.1 49.9467 33.12 49.98C33.1467 50.0133 33.2067 50.03 33.3 50.03C33.32 50.03 33.3667 50.03 33.44 50.03C33.5133 50.03 33.5867 50.03 33.66 50.03C33.74 50.03 33.7967 50.03 33.83 50.03C33.8967 50.03 33.9433 50 33.97 49.94C34.0033 49.88 34.0267 49.7567 34.04 49.57C34.06 49.3833 34.0733 49.0967 34.08 48.71C34.1533 48.77 34.25 48.8267 34.37 48.88C34.49 48.9267 34.5967 48.9633 34.69 48.99C34.67 49.4367 34.6333 49.78 34.58 50.02C34.5267 50.2667 34.4467 50.4333 34.34 50.52C34.2333 50.6133 34.09 50.66 33.91 50.66C33.8633 50.66 33.79 50.66 33.69 50.66C33.5967 50.66 33.5 50.66 33.4 50.66C33.3067 50.66 33.24 50.66 33.2 50.66C32.9867 50.66 32.8233 50.6333 32.71 50.58C32.5967 50.5333 32.52 50.4433 32.48 50.31C32.44 50.1767 32.42 49.9967 32.42 49.77V47.22ZM31.04 47.4H31.69C31.6433 47.92 31.5533 48.4 31.42 48.84C31.2933 49.2733 31.0867 49.6567 30.8 49.99C30.52 50.3167 30.13 50.59 29.63 50.81C29.59 50.73 29.5267 50.6367 29.44 50.53C29.36 50.4233 29.2833 50.34 29.21 50.28C29.6633 50.1 30.0133 49.87 30.26 49.59C30.5133 49.31 30.6967 48.9867 30.81 48.62C30.9233 48.2467 31 47.84 31.04 47.4Z" fill="white"/>
</svg>
